<?xml version="1.0" encoding="UTF-8"?>
<svg version="1.1" xmlns="http://www.w3.org/2000/svg" width="237" height="218">
<path d="M0 0 C78.21 0 156.42 0 237 0 C237 71.94 237 143.88 237 218 C158.79 218 80.58 218 0 218 C0 146.06 0 74.12 0 0 Z " fill="#FBFAFB" transform="translate(0,0)"/>
<path d="M0 0 C4.49230156 2.86281447 8.16926979 5.90336033 10.28515625 10.87109375 C11.27578946 18.25391811 10.84580986 24.80826639 6.28515625 30.87109375 C2.0185485 35.9412271 -1.93447087 37.58304311 -8.48046875 38.25390625 C-11.55957122 39.10442756 -11.99439506 40.15513555 -13.71484375 42.87109375 C-15.09728454 45.81258355 -16.30393886 48.81769041 -17.5078125 51.8359375 C-17.85870438 52.70626114 -18.20959625 53.57658478 -18.57112122 54.47328186 C-19.30950618 56.31030708 -20.04476501 58.14859153 -20.77709961 59.98803711 C-21.89860031 62.79921037 -23.03558203 65.60377524 -24.17382812 68.40820312 C-24.89027218 70.19623452 -25.60579808 71.98463413 -26.3203125 73.7734375 C-26.66088181 74.61003403 -27.00145111 75.44663055 -27.3523407 76.30857849 C-28.9171639 80.27563981 -30.19245823 83.52309821 -29.71484375 87.87109375 C-28.68359375 88.42796875 -27.65234375 88.98484375 -26.58984375 89.55859375 C-18.33663529 94.01532632 -13.66568067 100.15531161 -10.30517578 108.81982422 C-8.62602074 114.65450606 -9.22563091 120.89182572 -9.71484375 126.87109375 C-0.5217349 130.47441597 -0.5217349 130.47441597 8.80078125 129.8359375 C10.61975082 128.24416954 10.61975082 128.24416954 12.0234375 126.421875 C13.28515625 124.87109375 13.28515625 124.87109375 16.28515625 123.87109375 C14.3951182 117.06388353 12.08322349 110.49894271 9.46484375 103.9375 C8.28515625 100.87109375 8.28515625 100.87109375 7.54296875 98.3359375 C6.90137793 95.92931785 6.90137793 95.92931785 5.28515625 92.87109375 C1.98688159 91.66640615 1.98688159 91.66640615 -1.71484375 90.87109375 C-5.69923702 88.20948698 -8.94540376 85.39951837 -10.71484375 80.87109375 C-11.42341467 75.87814053 -11.26637066 71.95445017 -8.96484375 67.43359375 C-6.12057316 64.19428558 -4.26952608 62.11144158 0.08984375 61.4375 C6.30749764 61.4295895 10.50450691 61.44899311 15.28515625 65.87109375 C16.46078125 66.92296875 16.46078125 66.92296875 17.66015625 67.99609375 C20.06527251 72.25129944 20.06917268 76.09232692 19.28515625 80.87109375 C18.14729297 83.36400584 16.73440693 85.53359266 15.28515625 87.87109375 C15.74051686 91.37270857 17.30105329 94.671638 18.5703125 97.94921875 C19.01826172 99.109375 19.46621094 100.26953125 19.92773438 101.46484375 C20.6305957 103.2746875 20.6305957 103.2746875 21.34765625 105.12109375 C22.05631836 106.95414063 22.05631836 106.95414063 22.77929688 108.82421875 C23.94581328 111.84066521 25.11451139 114.85624762 26.28515625 117.87109375 C27.48229248 117.93151855 27.48229248 117.93151855 28.70361328 117.99316406 C37.04478497 118.5278708 42.31571246 120.25496865 49.28515625 124.87109375 C49.89359375 125.25265625 50.50203125 125.63421875 51.12890625 126.02734375 C55.94587818 129.46803798 58.63742859 134.3082525 60.28515625 139.87109375 C61.26324822 149.22755849 61.0303817 157.27092174 55.62890625 165.34765625 C49.31343099 172.70679056 42.37714367 176.56201071 32.72265625 177.87109375 C25.39103273 178.21623437 19.05545364 176.64821047 13.34765625 171.93359375 C11.05135668 169.7618576 9.02121441 167.52624153 7.28515625 164.87109375 C3.08267198 165.44530532 -0.47614937 166.42671735 -4.375 168.0859375 C-5.41591797 168.52486328 -6.45683594 168.96378906 -7.52929688 169.41601562 C-8.60115234 169.87556641 -9.67300781 170.33511719 -10.77734375 170.80859375 C-12.9139975 171.71369513 -15.050714 172.61864839 -17.1875 173.5234375 C-18.12859619 173.92554443 -19.06969238 174.32765137 -20.03930664 174.74194336 C-20.92223389 175.11456299 -21.80516113 175.48718262 -22.71484375 175.87109375 C-23.59197021 176.24951416 -24.46909668 176.62793457 -25.37280273 177.01782227 C-27.71484375 177.87109375 -27.71484375 177.87109375 -30.71484375 177.87109375 C-31.04484375 178.86109375 -31.37484375 179.85109375 -31.71484375 180.87109375 C-34.375 181.8984375 -34.375 181.8984375 -37.77734375 182.80859375 C-43.18242186 184.34951514 -47.760456 186.25878021 -52.71484375 188.87109375 C-54.03937322 189.23785059 -55.37163143 189.5801134 -56.71484375 189.87109375 C-56.8128125 190.58394531 -56.91078125 191.29679688 -57.01171875 192.03125 C-57.96886112 198.16191188 -59.05551984 202.81261657 -62.71484375 207.87109375 C-64.96484375 209.30859375 -64.96484375 209.30859375 -66.71484375 209.87109375 C-66.71484375 210.53109375 -66.71484375 211.19109375 -66.71484375 211.87109375 C-72.37968794 216.41861167 -79.87381173 215.72677626 -86.77001953 215.17285156 C-92.77295026 214.24144027 -96.09282589 209.86470845 -99.58984375 205.30859375 C-103.48818412 199.27076018 -104.63060181 194.05543378 -103.71484375 186.87109375 C-102.34010937 182.96088228 -100.64883806 179.80508806 -97.71484375 176.87109375 C-97.71484375 170.63999707 -101.49658765 165.8752169 -104.71484375 160.80859375 C-105.99456843 158.75278228 -107.27179471 156.69541404 -108.546875 154.63671875 C-109.22443848 153.54423828 -109.90200195 152.45175781 -110.60009766 151.32617188 C-114.30820939 145.30105541 -117.84370185 139.17266196 -121.40234375 133.05859375 C-126.70551728 123.95505336 -132.05874767 114.89085802 -137.66870117 105.97143555 C-140.71484375 101.08042066 -140.71484375 101.08042066 -140.71484375 98.87109375 C-142.41640625 98.97550781 -142.41640625 98.97550781 -144.15234375 99.08203125 C-157.85580486 99.67605046 -157.85580486 99.67605046 -162.46484375 96.30859375 C-168.1006641 90.95077351 -172.37147196 84.99155526 -173.02734375 77.12109375 C-172.74710526 69.65273788 -170.64272396 64.43703729 -165.52734375 58.93359375 C-158.49998163 52.42761656 -151.94696363 52.53056474 -142.71484375 52.87109375 C-142.71484375 53.53109375 -142.71484375 54.19109375 -142.71484375 54.87109375 C-141.69390625 54.96390625 -141.69390625 54.96390625 -140.65234375 55.05859375 C-135.71314432 56.42475529 -132.10939936 58.60799912 -129.37890625 63.0390625 C-126.56306921 69.31977703 -126.24917284 75.06712433 -126.71484375 81.87109375 C-125.72484375 81.95359375 -124.73484375 82.03609375 -123.71484375 82.12109375 C-119.96676796 82.64687592 -117.1951111 84.05076063 -113.890625 85.828125 C-110.71555214 87.35010786 -107.40795009 88.20287779 -104.02734375 89.15625 C-101.06871697 90.07082551 -98.45652088 91.44065351 -95.71484375 92.87109375 C-93.07726099 93.95549608 -90.40074088 94.91393768 -87.71484375 95.87109375 C-86.94398437 96.165 -86.173125 96.45890625 -85.37890625 96.76171875 C-84.60289063 97.0453125 -83.826875 97.32890625 -83.02734375 97.62109375 C-82.32222656 97.8840625 -81.61710937 98.14703125 -80.890625 98.41796875 C-78.0999669 98.9991471 -76.42147014 98.77471667 -73.71484375 97.87109375 C-71.48654018 96.05021326 -71.48654018 96.05021326 -69.52734375 93.80859375 C-68.29102345 92.463534 -67.02679227 91.1424964 -65.71484375 89.87109375 C-65.05484375 89.87109375 -64.39484375 89.87109375 -63.71484375 89.87109375 C-64.67045895 87.28672561 -65.62922264 84.70360074 -66.58984375 82.12109375 C-66.85925781 81.39148438 -67.12867187 80.661875 -67.40625 79.91015625 C-67.93110529 78.50200791 -68.46585395 77.09749879 -69.01147461 75.69726562 C-69.55522606 74.28551247 -70.04983988 72.85477699 -70.5234375 71.41796875 C-71.69137963 69.56907703 -71.69137963 69.56907703 -74.5078125 69.18359375 C-75.62800781 69.08046875 -76.74820313 68.97734375 -77.90234375 68.87109375 C-85.25623865 67.93057356 -89.13814866 66.44778884 -94.46484375 61.12109375 C-99.08579035 54.44639311 -100.85620356 48.0032824 -99.71484375 39.87109375 C-97.89593731 33.8622064 -93.85633886 28.47916049 -88.71484375 24.87109375 C-87.39484375 24.87109375 -86.07484375 24.87109375 -84.71484375 24.87109375 C-84.71484375 24.21109375 -84.71484375 23.55109375 -84.71484375 22.87109375 C-76.66395901 22.35574551 -70.29056349 22.17476348 -63.2890625 26.484375 C-61.71484375 27.87109375 -61.71484375 27.87109375 -60.71484375 30.87109375 C-60.09609375 31.13921875 -59.47734375 31.40734375 -58.83984375 31.68359375 C-55.49639462 33.55199179 -54.94969669 35.22827757 -53.71484375 38.87109375 C-52.5968637 47.18399493 -53.48812502 52.98093639 -58.20703125 59.9453125 C-59.71484375 61.87109375 -59.71484375 61.87109375 -61.71484375 63.87109375 C-61.22141028 67.6687692 -59.51098469 71.35036691 -58.21484375 74.93359375 C-55.76547666 81.71919502 -55.76547666 81.71919502 -54.71484375 84.87109375 C-54.163125 84.70738281 -53.61140625 84.54367188 -53.04296875 84.375 C-49.65760047 83.64226089 -46.37179895 83.79666013 -42.92285156 83.84204102 C-42.19420898 83.85162842 -41.46556641 83.86121582 -40.71484375 83.87109375 C-40.3796875 82.60910156 -40.04453125 81.34710938 -39.69921875 80.046875 C-38.15137863 74.87982049 -36.17675702 69.94952669 -34.10546875 64.9765625 C-33.77309204 64.17638702 -33.44071533 63.37621155 -33.0982666 62.55178833 C-31.70201633 59.19981771 -30.30042773 55.85028408 -28.88330078 52.50708008 C-27.84153036 50.04326691 -26.81616628 47.57313527 -25.79296875 45.1015625 C-25.46911194 44.34940964 -25.14525513 43.59725677 -24.81158447 42.8223114 C-23.15992104 38.7990925 -22.15474082 36.03369813 -23.71484375 31.87109375 C-25.01056758 29.84652527 -26.34217555 27.84430428 -27.71484375 25.87109375 C-29.4648242 20.62115241 -29.85200799 14.72108212 -27.7734375 9.51171875 C-21.78161909 -0.4809063 -11.17885133 -4.64847199 0 0 Z " fill="#3D196B" transform="translate(174.71484375,3.12890625)"/>
<path d="M0 0 C6.19240462 0.68804496 12.01955594 2.28048715 18 4 C18 4.66 18 5.32 18 6 C19.01513672 6.16048828 19.01513672 6.16048828 20.05078125 6.32421875 C23.58895082 7.13495164 26.84389291 8.43129712 30.1875 9.8125 C30.84733887 10.08022217 31.50717773 10.34794434 32.18701172 10.6237793 C35.13822126 11.82187691 38.08330252 13.03439588 41.02734375 14.25 C41.88457031 14.600625 42.74179688 14.95125 43.625 15.3125 C44.35976562 15.61800781 45.09453125 15.92351562 45.8515625 16.23828125 C48.21132176 17.07492317 50.53744399 17.56365236 53 18 C52.96519531 19.12277344 52.93039063 20.24554688 52.89453125 21.40234375 C52.58611264 35.34660329 54.58037482 44.99461494 64.375 55.5625 C64.91125 56.036875 65.4475 56.51125 66 57 C63.723036 64.19041263 60.9522037 71.05833185 58 78 C51.565 78.495 51.565 78.495 45 79 C40.41934248 72.28540947 36.24448157 65.41622787 32.1875 58.375 C30.94340908 56.22876032 29.69861935 54.08292555 28.453125 51.9375 C27.85693359 50.91011719 27.26074219 49.88273437 26.64648438 48.82421875 C24.60559486 45.32347588 22.53244611 41.84359181 20.4375 38.375 C16.05186632 31.11139251 11.73872937 23.80552127 7.42749023 16.49755859 C6.89712158 15.59859863 6.36675293 14.69963867 5.8203125 13.7734375 C5.34867676 12.97341309 4.87704102 12.17338867 4.39111328 11.34912109 C3.40960683 9.69168778 2.38231047 8.06096078 1.32373047 6.45166016 C0 4 0 4 0 0 Z " fill="#F0EFF2" transform="translate(42,94)"/>
<path d="M0 0 C1.06057617 -0.01160156 1.06057617 -0.01160156 2.14257812 -0.0234375 C5.89630595 -0.00933899 8.75356496 0.16596979 11.9375 2.25 C11.9375 2.91 11.9375 3.57 11.9375 4.25 C12.659375 4.45625 13.38125 4.6625 14.125 4.875 C19.70881896 7.60486705 22.56164863 12.69737286 24.9375 18.25 C26.00962799 26.48896553 25.53480843 34.18768738 20.9375 41.25 C17.2365888 45.90257408 12.57338646 49.337262 6.9375 51.25 C-1.81652351 52.24646863 -9.79664324 52.41081615 -16.88671875 46.80859375 C-22.40363919 41.82370338 -25.55800184 36.48882478 -26.44140625 29.06640625 C-26.78310832 19.53181626 -24.49773904 13.27026077 -18.0625 6.25 C-12.33454687 1.10952924 -7.6033102 -0.08362944 0 0 Z " fill="#F2F0F5" transform="translate(130.0625,96.75)"/>
<path d="M0 0 C5.33971562 0.41491034 9.40244749 2.58342946 13.8125 5.4921875 C13.8125 10.1121875 13.8125 14.7321875 13.8125 19.4921875 C8.8125 21.4921875 8.8125 21.4921875 5.8125 21.4921875 C5.3175 22.9771875 5.3175 22.9771875 4.8125 24.4921875 C2.52148438 25.38989258 2.52148438 25.38989258 -0.59375 26.19921875 C-6.2933609 27.83513166 -11.69483535 29.82213945 -17.15625 32.12890625 C-18.31991089 32.61957077 -18.31991089 32.61957077 -19.50708008 33.12014771 C-21.90257108 34.13532656 -24.29535164 35.15665926 -26.6875 36.1796875 C-29.1152324 37.21569696 -31.54372606 38.24972282 -33.97473145 39.2780304 C-35.47368556 39.91222999 -36.97079413 40.55081578 -38.46569824 41.19450378 C-45.57905177 44.20720393 -45.57905177 44.20720393 -49.1875 44.4921875 C-52.0625 42.4921875 -52.0625 42.4921875 -54.1875 39.4921875 C-53.88763566 34.04798376 -52.21933624 29.50626206 -50.125 24.5546875 C-49.84333984 23.87083984 -49.56167969 23.18699219 -49.27148438 22.48242188 C-48.5839595 20.81604804 -47.88673825 19.15368023 -47.1875 17.4921875 C-46.0015625 17.65203125 -44.815625 17.811875 -43.59375 17.9765625 C-30.92382847 19.54914959 -21.92011623 18.46816342 -11.33984375 11.32421875 C-8.9466967 9.28722062 -7.43881384 7.15536833 -5.6875 4.5546875 C-2.83967391 0.63892663 -2.83967391 0.63892663 0 0 Z " fill="#FBFBFC" transform="translate(163.1875,138.5078125)"/>
<path d="M0 0 C4.67433783 3.66041896 7.22909596 7.66716129 8.30859375 13.5078125 C8.7297153 20.01605471 5.93909759 25.14517931 1.8125 30 C-0.0625 31.5 -0.0625 31.5 -2.0625 31.5 C-2.3925 32.49 -2.7225 33.48 -3.0625 34.5 C-18.98908819 35.15551506 -18.98908819 35.15551506 -24.0625 31.5 C-28.6646553 26.8978447 -31.48619335 22.40766621 -31.75 15.8125 C-31.2854547 9.22524766 -28.88051889 5.59072173 -24.5625 0.625 C-18.23646775 -4.75212741 -6.83530027 -4.18974385 0 0 Z " fill="#E6E2EA" transform="translate(218.0625,135.5)"/>
<path d="M0 0 C6.92194518 0.03531605 11.88598069 1.41593447 17.5625 5.375 C18.43261719 5.97828125 18.43261719 5.97828125 19.3203125 6.59375 C21.31428694 9.4530341 20.84397052 12.14823772 20.75 15.5625 C20.72292969 16.83480469 20.69585937 18.10710937 20.66796875 19.41796875 C20.63316406 20.39378906 20.59835938 21.36960937 20.5625 22.375 C18.34060176 20.15310176 17.63651108 18.29017292 16.5625 15.375 C16.52511719 16.09945312 16.48773438 16.82390625 16.44921875 17.5703125 C15.94730631 24.95137783 14.97096883 30.17151855 9.6875 35.625 C6.22396754 38.42082254 3.1759546 38.96695721 -1.1953125 39.546875 C-2.94932373 39.78809082 -2.94932373 39.78809082 -4.73876953 40.03417969 C-6.07464111 40.20288574 -6.07464111 40.20288574 -7.4375 40.375 C-7.46214775 34.83911467 -7.48033496 29.303261 -7.49243164 23.76733398 C-7.49747244 21.8825627 -7.50430498 19.99779535 -7.51293945 18.11303711 C-7.52501617 15.40998364 -7.53073068 12.70698169 -7.53515625 10.00390625 C-7.54031754 9.15599014 -7.54547882 8.30807404 -7.55079651 7.4344635 C-7.55099195 5.41428932 -7.49956211 3.39422066 -7.4375 1.375 C-5.5494684 -0.5130316 -2.52589623 0.07069247 0 0 Z " fill="#FCFBFC" transform="translate(129.4375,97.625)"/>
<path d="M0 0 C9.24 0 18.48 0 28 0 C28 9.24 28 18.48 28 28 C18.76 28 9.52 28 0 28 C0 18.76 0 9.52 0 0 Z " fill="#FEFEFE" transform="translate(2,182)"/>
<path d="M0 0 C9.24 0 18.48 0 28 0 C28 9.24 28 18.48 28 28 C18.76 28 9.52 28 0 28 C0 18.76 0 9.52 0 0 Z " fill="#FEFEFE" transform="translate(2,122)"/>
<path d="M0 0 C1.12591553 0.00523682 2.25183105 0.01047363 3.41186523 0.01586914 C4.50571533 0.0183667 5.59956543 0.02086426 6.7265625 0.0234375 C8.82729126 0.03709351 8.82729126 0.03709351 10.97045898 0.05102539 C17.62202148 0.08196289 17.62202148 0.08196289 24.40795898 0.11352539 C24.40795898 9.35352539 24.40795898 18.59352539 24.40795898 28.11352539 C15.16795898 28.11352539 5.92795898 28.11352539 -3.59204102 28.11352539 C-3.61266602 23.67915039 -3.63329102 19.24477539 -3.65454102 14.67602539 C-3.66364502 13.27553955 -3.67274902 11.87505371 -3.68212891 10.43212891 C-3.68462646 9.33827881 -3.68712402 8.24442871 -3.68969727 7.11743164 C-3.69493408 5.99151611 -3.7001709 4.86560059 -3.70556641 3.70556641 C-3.55270048 0.21529211 -3.4902743 0.15286593 0 0 Z " fill="#FEFEFE" transform="translate(5.592041015625,1.886474609375)"/>
<path d="M0 0 C9.24 0 18.48 0 28 0 C28 8.91 28 17.82 28 27 C18.76 27 9.52 27 0 27 C0 18.09 0 9.18 0 0 Z " fill="#FEFEFE" transform="translate(32,3)"/>
<path d="M0 0 C9.24 0 18.48 0 28 0 C28 8.25 28 16.5 28 25 C23.63787352 26.74485059 21.89804529 27.2446709 17.48046875 27.1953125 C16.55903076 27.19031738 15.63759277 27.18532227 14.68823242 27.18017578 C13.53299072 27.16196777 12.37774902 27.14375977 11.1875 27.125 C5.6496875 27.063125 5.6496875 27.063125 0 27 C0 18.09 0 9.18 0 0 Z " fill="#FEFEFE" transform="translate(62,3)"/>
<path d="M0 0 C9.24 0 18.48 0 28 0 C28 7.59 28 15.18 28 23 C24.04 23.33 20.08 23.66 16 24 C16 24.66 16 25.32 16 26 C11 28 11 28 0 28 C0 18.76 0 9.52 0 0 Z " fill="#FEFDFE" transform="translate(2,32)"/>
<path d="M0 0 C8.25 0 16.5 0 25 0 C25 9.24 25 18.48 25 28 C16.75 28 8.5 28 0 28 C0 18.76 0 9.52 0 0 Z " fill="#FEFEFE" transform="translate(212,182)"/>
<path d="M0 0 C8.25 0 16.5 0 25 0 C25 9.24 25 18.48 25 28 C16.75 28 8.5 28 0 28 C0 18.76 0 9.52 0 0 Z " fill="#FEFEFE" transform="translate(212,92)"/>
<path d="M0 0 C9.24 0 18.48 0 28 0 C28 8.91 28 17.82 28 27 C19.75 27 11.5 27 3 27 C3 23.04 3 19.08 3 15 C2.06437285 12.31007194 1.07312154 9.63809046 0 7 C0 4.69 0 2.38 0 0 Z " fill="#FEFEFE" transform="translate(182,3)"/>
<path d="M0 0 C9.24 0 18.48 0 28 0 C28 9.24 28 18.48 28 28 C16.75 26.875 16.75 26.875 12 24 C12 23.34 12 22.68 12 22 C8.04 22 4.08 22 0 22 C0 14.74 0 7.48 0 0 Z " fill="#FDFCFD" transform="translate(92,3)"/>
<path d="M0 0 C0 9.57 0 19.14 0 29 C-9.24 29 -18.48 29 -28 29 C-28 22.73 -28 16.46 -28 10 C-21.90148953 6.72978424 -16.27169439 4.2958437 -9.54296875 2.67578125 C-6.93863839 2.03869548 -6.93863839 2.03869548 -4.30078125 0.91796875 C-2 0 -2 0 0 0 Z " fill="#FBFBFC" transform="translate(150,181)"/>
<path d="M0 0 C9.24 0 18.48 0 28 0 C28 9.24 28 18.48 28 28 C15.76901902 29.76126126 15.76901902 29.76126126 11 28 C8.15956659 25.58048056 6.32632506 22.82206732 4.4375 19.625 C3.97947998 18.85172363 3.52145996 18.07844727 3.04956055 17.28173828 C-0.35106931 10.79358004 0 8.34724853 0 0 Z " fill="#FDFCFD" transform="translate(62,122)"/>
<path d="M0 0 C8.25 0 16.5 0 25 0 C25 8.91 25 17.82 25 27 C16.75 27 8.5 27 0 27 C0 18.09 0 9.18 0 0 Z " fill="#FFFFFF" transform="translate(212,63)"/>
<path d="M0 0 C0.66 0 1.32 0 2 0 C2 9.24 2 18.48 2 28 C11.24 28 20.48 28 30 28 C30 22.72 30 17.44 30 12 C27.03 12 24.06 12 21 12 C20.67 11.34 20.34 10.68 20 10 C24.73868325 8.73822044 29.45074246 7.80695436 34 10 C39.20163177 15.40816513 43.39237818 22.9759629 46 30 C45.67 30.66 45.34 31.32 45 32 C44.67 31.67 44.34 31.34 44 31 C40.04 30.67 36.08 30.34 32 30 C32 39.24 32 48.48 32 58 C41.24 58 50.48 58 60 58 C60 58.66 60 59.32 60 60 C50.76 60 41.52 60 32 60 C32 69.24 32 78.48 32 88 C31.34 88 30.68 88 30 88 C30 78.76 30 69.52 30 60 C20.76 60 11.52 60 2 60 C2 69.24 2 78.48 2 88 C1.34 88 0.68 88 0 88 C0 58.96 0 29.92 0 0 Z M2 30 C2 39.24 2 48.48 2 58 C11.24 58 20.48 58 30 58 C30 48.76 30 39.52 30 30 C20.76 30 11.52 30 2 30 Z " fill="#EDEDED" transform="translate(0,92)"/>
<path d="M0 0 C8.60851191 -0.17390933 8.60851191 -0.17390933 13 1 C15.71767175 3.97298537 16.77199077 7.20943268 18 11 C18.59246191 12.29707711 19.19497982 13.58966387 19.8125 14.875 C21 18 21 18 21 22 C19.35546875 23.81640625 19.35546875 23.81640625 17.1875 25.5625 C14.18508675 27.99208839 14.18508675 27.99208839 11.46484375 30.71875 C10 32 10 32 6.375 31.9375 C2.35255144 31.26831752 -1.04710157 29.78675321 -4.7109375 28.04296875 C-7.6715841 26.6940052 -10.69982639 25.71548939 -13.79296875 24.71875 C-18.44589833 23.20345966 -22.9039838 21.73067747 -27 19 C-18.09 19 -9.18 19 0 19 C0 12.73 0 6.46 0 0 Z " fill="#E5E3E8" transform="translate(90,71)"/>
<path d="M0 0 C0.66 0.33 1.32 0.66 2 1 C3.81341842 1.08471364 5.62994161 1.10721083 7.4453125 1.09765625 C8.52167969 1.09443359 9.59804687 1.09121094 10.70703125 1.08789062 C12.39892578 1.07532227 12.39892578 1.07532227 14.125 1.0625 C15.26066406 1.05798828 16.39632812 1.05347656 17.56640625 1.04882812 C20.37765638 1.03701615 23.1888023 1.02054507 26 1 C24.14895152 7.561482 21.97657322 13.85135784 19.3125 20.125 C18.99216797 20.89070313 18.67183594 21.65640625 18.34179688 22.4453125 C17.5656685 24.2987534 16.78349599 26.14966153 16 28 C11.38 28.33 6.76 28.66 2 29 C1.05036417 26.86331939 0.10195564 24.72608379 -0.83984375 22.5859375 C-1.59954317 20.89260074 -2.38268252 19.20954103 -3.19140625 17.5390625 C-3.56136719 16.76304688 -3.93132812 15.98703125 -4.3125 15.1875 C-4.83263672 14.12595703 -4.83263672 14.12595703 -5.36328125 13.04296875 C-6.1428557 10.54163477 -5.94214387 9.42746251 -5 7 C-3.80859375 5.078125 -3.80859375 5.078125 -2.4375 3.25 C-1.98246094 2.63640625 -1.52742188 2.0228125 -1.05859375 1.390625 C-0.70925781 0.93171875 -0.35992187 0.4728125 0 0 Z " fill="#FDFCFD" transform="translate(118,59)"/>
<path d="M0 0 C39.6 0 79.2 0 120 0 C120 2.97 120 5.94 120 9 C119.42894531 8.566875 118.85789062 8.13375 118.26953125 7.6875 C111.27599589 2.88430878 105.40820059 1.67527048 97 3 C94.22522404 4.05460235 92.42408835 5.22233521 90 7 C89.34 7.33 88.68 7.66 88 8 C88 6.35 88 4.7 88 3 C78.76 3 69.52 3 60 3 C60 12.24 60 21.48 60 31 C63.91875 30.855625 67.8375 30.71125 71.875 30.5625 C73.10976074 30.51939697 74.34452148 30.47629395 75.61669922 30.43188477 C76.58623535 30.39377686 77.55577148 30.35566895 78.5546875 30.31640625 C79.54968262 30.27974854 80.54467773 30.24309082 81.56982422 30.20532227 C84.00779501 30.15040468 84.00779501 30.15040468 86 29 C86.99 30.98 86.99 30.98 88 33 C74.14 32.505 74.14 32.505 60 32 C60 40.58 60 49.16 60 58 C59.01 58.33 58.02 58.66 57 59 C57.15855469 58.47019531 57.31710938 57.94039062 57.48046875 57.39453125 C58.81651619 51.23665847 59.38342517 43.58995324 56.25 37.9375 C54.30158287 35.39373319 52.38821861 33.13233805 50 31 C52 30 52 30 58 31 C58 21.76 58 12.52 58 3 C48.76 3 39.52 3 30 3 C30 10.26 30 17.52 30 25 C33.96 25 37.92 25 42 25 C42 25.33 42 25.66 42 26 C37.38 26 32.76 26 28 26 C28 18.41 28 10.82 28 3 C18.76 3 9.52 3 0 3 C0 2.01 0 1.02 0 0 Z " fill="#EFEEEF" transform="translate(62,0)"/>
<path d="M0 0 C12 0 12 0 14.88671875 1.90234375 C17.70626844 6.03525114 20.33352059 10.21683917 22.8125 14.5625 C23.56563477 15.83770508 23.56563477 15.83770508 24.33398438 17.13867188 C24.80771484 17.96044922 25.28144531 18.78222656 25.76953125 19.62890625 C26.19854736 20.37213135 26.62756348 21.11535645 27.06958008 21.88110352 C28 24 28 24 28 28 C18.76 28 9.52 28 0 28 C0 18.76 0 9.52 0 0 Z " fill="#FCFBFD" transform="translate(32,122)"/>
<path d="M0 0 C1.32 0.33 2.64 0.66 4 1 C4.66666667 2.33333333 5.33333333 3.66666667 6 5 C7.33004638 5.34621598 8.6640568 5.67728548 10 6 C11.41479213 6.80072365 12.80992432 7.63681961 14.1875 8.5 C18.86709739 11.1973759 22.63859615 11.74469505 28 12 C28 17.28 28 22.56 28 28 C18.76 28 9.52 28 0 28 C0 18.76 0 9.52 0 0 Z " fill="#FEFDFE" transform="translate(2,92)"/>
<path d="M0 0 C3.89307355 0.05561534 6.12038544 0.81585534 9.25 3.25 C9.9925 3.78625 10.735 4.3225 11.5 4.875 C14.16492001 8.49167715 14.79610706 11.79603595 14.25 16.25 C12.01915424 21.15329238 9.40506131 25.25644113 4.25 27.25 C-0.14048302 27.82987512 -2.86752101 27.50463175 -6.5 25.0625 C-9.91201678 22.31755167 -12.37580813 19.83772124 -13.02734375 15.33203125 C-13.23807007 10.8393461 -12.70303763 7.81401093 -9.75 4.25 C-7.125 2.5 -7.125 2.5 -4.75 1.25 C-3.75 0.25 -3.75 0.25 0 0 Z " fill="#FCFBFD" transform="translate(24.75,65.75)"/>
<path d="M0 0 C0 14.85 0 29.7 0 45 C-6.81210191 42.72929936 -6.81210191 42.72929936 -10.25 38.75 C-10.91515625 38.00234375 -11.5803125 37.2546875 -12.265625 36.484375 C-16.81077451 29.97375544 -16.76769928 22.65826838 -16 15 C-15.06862191 11.99462535 -13.78055444 9.58210988 -12 7 C-11.360625 6.05125 -10.72125 5.1025 -10.0625 4.125 C-6.97761139 0.94662991 -4.39178854 0 0 0 Z " fill="#F9F8FA" transform="translate(120,101)"/>
<path d="M0 0 C8.25 0 16.5 0 25 0 C25 8.91 25 17.82 25 27 C19.06 27 13.12 27 7 27 C7.33 25.02 7.66 23.04 8 21 C8.74850342 14.8429595 8.74850342 14.8429595 6.8828125 9.12890625 C5.6324796 7.7125687 4.31932291 6.35230598 3 5 C3 4.01 3 3.02 3 2 C2.01 2 1.02 2 0 2 C0 1.34 0 0.68 0 0 Z " fill="#FBFBFC" transform="translate(185,63)"/>
<path d="M0 0 C1.32 0 2.64 0 4 0 C4 7.92 4 15.84 4 24 C-3.59 24 -11.18 24 -19 24 C-19 16.06741573 -19 16.06741573 -17.1875 11.75 C-16.85105469 10.91984375 -16.51460937 10.0896875 -16.16796875 9.234375 C-14.964956 6.9329593 -14.06830078 5.56325059 -12 4 C-9.58984375 3.33984375 -9.58984375 3.33984375 -6.9375 2.9375 C-3.01772316 2.42077081 -3.01772316 2.42077081 0 0 Z " fill="#FAF9FA" transform="translate(176,37)"/>
<path d="M0 0 C6.27 0 12.54 0 19 0 C19 9.57 19 19.14 19 29 C11 29 11 29 9.12768555 27.79443359 C6.74676379 24.00578346 5.37254449 19.80016429 3.8125 15.625 C3.44447266 14.67882812 3.07644531 13.73265625 2.69726562 12.7578125 C2.34986328 11.84 2.00246094 10.9221875 1.64453125 9.9765625 C1.32846924 9.14205566 1.01240723 8.30754883 0.68676758 7.44775391 C0 5 0 5 0 0 Z " fill="#FCFCFD" transform="translate(191,92)"/>
<path d="M0 0 C2.27336035 3.41004053 3.55262173 6.92675923 4.9375 10.75 C5.44493832 12.14123754 5.95404254 13.53186864 6.46484375 14.921875 C6.71476074 15.60443359 6.96467773 16.28699219 7.22216797 16.99023438 C7.97463526 18.93446247 8.81844234 20.81059256 9.69140625 22.703125 C10.94864013 25.87060378 11.62336297 27.66784157 11 31 C9.3203125 32.984375 9.3203125 32.984375 7.125 34.75 C6.40570313 35.34296875 5.68640625 35.9359375 4.9453125 36.546875 C3 38 3 38 1 39 C-0.97410296 38.64028736 -2.93199136 38.18869171 -4.875 37.6875 C-5.92429688 37.42324219 -6.97359375 37.15898437 -8.0546875 36.88671875 C-11 36 -11 36 -15 34 C-15 30.7 -15 27.4 -15 24 C-10.05 24 -5.1 24 0 24 C0 16.08 0 8.16 0 0 Z " fill="#F4F3F6" transform="translate(180,96)"/>
<path d="M0 0 C5.94 0 11.88 0 18 0 C17 4 17 4 15.4375 7.125 C12.44037445 13.95259821 13.93994412 21.84462284 15 29 C10.05 29 5.1 29 0 29 C0 19.43 0 9.86 0 0 Z " fill="#FCFCFD" transform="translate(62,32)"/>
<path d="M0 0 C6.27 0 12.54 0 19 0 C19 19.14 19 38.28 19 58 C13.39 58 7.78 58 2 58 C4.2180917 52.45477076 4.2180917 52.45477076 7.375 50.125 C11.87905126 46.49360867 14.16140356 42.51578931 16 37 C16.74527054 27.62023797 17.16334462 18.74104288 11 11 C9.04172286 9.21316735 7.08674163 7.70050281 4.8671875 6.25390625 C2.97677022 4.98440009 1.48302482 3.72712517 0 2 C0 1.34 0 0.68 0 0 Z " fill="#F7F6F8" transform="translate(218,122)"/>
<path d="M0 0 C1.5631897 0.00785522 1.5631897 0.00785522 3.15795898 0.01586914 C4.28266602 0.0190918 5.40737305 0.02231445 6.56616211 0.02563477 C7.75016602 0.03401367 8.93416992 0.04239258 10.15405273 0.05102539 C11.34192383 0.05553711 12.52979492 0.06004883 13.75366211 0.06469727 C16.69967499 0.07652864 19.64558954 0.09301252 22.59155273 0.11352539 C20.22175147 1.6933929 18.22244409 2.73954606 15.65405273 3.86352539 C11.55616004 5.93133865 9.50412309 7.81024209 7.59155273 12.11352539 C6.96918455 17.65170027 7.67503302 22.61440713 8.59155273 28.11352539 C3.97155273 28.11352539 -0.64844727 28.11352539 -5.40844727 28.11352539 C-5.4627322 24.92579322 -5.50225815 21.73899903 -5.53344727 18.55102539 C-5.55020508 17.65577148 -5.56696289 16.76051758 -5.58422852 15.83813477 C-5.62319755 10.51886107 -5.22589757 6.12834198 -3.40844727 1.11352539 C-2.40844727 0.11352539 -2.40844727 0.11352539 0 0 Z " fill="#FBFAFC" transform="translate(157.408447265625,61.886474609375)"/>
<path d="M0 0 C5.9016597 0.37470855 10.33269893 1.31495461 15.6484375 3.87890625 C19.67595359 5.79900113 23.84832345 7.37053196 28 9 C28 11.97 28 14.94 28 18 C18.76 18 9.52 18 0 18 C0 12.06 0 6.12 0 0 Z " fill="#FCFBFD" transform="translate(62,102)"/>
<path d="M0 0 C9.24 0 18.48 0 28 0 C27 5 27 5 24.125 7.25 C21 9 21 9 18 10 C18 10.66 18 11.32 18 12 C19.32 12.33 20.64 12.66 22 13 C22 14.65 22 16.3 22 18 C16.20241687 18.31058481 10.99424556 18.26783969 6 15 C1.37544194 9.98186253 0 6.96048432 0 0 Z " fill="#FBFBFC" transform="translate(188,152)"/>
<path d="M0 0 C4.95 0 9.9 0 15 0 C15 8.25 15 16.5 15 25 C6 23.875 6 23.875 3 23 C2.96261719 22.29875 2.92523438 21.5975 2.88671875 20.875 C2.56017859 16.16257737 2.19288906 11.95365668 0.375 7.5625 C-1 4 -1 4 0 0 Z " fill="#F7F6F9" transform="translate(45,62)"/>
<path d="M0 0 C3.94875513 2.45865885 5.66872408 3.98776803 7.125 8.4375 C6.97001806 12.85448522 5.85971159 14.67655139 3 18 C-0.19879429 20.34578248 -3.10652889 20.47675156 -7 20 C-9.69990662 18.20006226 -11.5418865 16.916227 -13 14 C-13.51571681 9.62063431 -13.83341277 6.14953485 -11.1875 2.5 C-7.4988557 -0.02935609 -4.38999965 -0.51647055 0 0 Z " fill="#F5F3F7" transform="translate(169,11)"/>
<path d="M0 0 C3.96 0 7.92 0 12 0 C11 5 11 5 10 8 C9.40602918 14.53367905 10.13271525 19.1459603 13 25 C13 25.99 13 26.98 13 28 C8.71 28 4.42 28 0 28 C0 18.76 0 9.52 0 0 Z " fill="#FDFDFD" transform="translate(62,182)"/>
<path d="M0 0 C19.8 0 39.6 0 60 0 C60 0.99 60 1.98 60 3 C50.76 3 41.52 3 32 3 C32 11.91 32 20.82 32 30 C41.24 30 50.48 30 60 30 C60 30.33 60 30.66 60 31 C52.47228843 31.02314652 44.94458053 31.04092691 37.41684151 31.05181217 C33.92159902 31.05703593 30.42638084 31.06412441 26.93115234 31.07543945 C22.91503666 31.08835974 18.8989466 31.0932324 14.8828125 31.09765625 C12.99527756 31.10539818 12.99527756 31.10539818 11.0696106 31.11329651 C9.90855804 31.11337204 8.74750549 31.11344757 7.55126953 31.11352539 C6.52534698 31.115746 5.49942444 31.11796661 4.44241333 31.12025452 C2 31 2 31 0 30 C0 20.1 0 10.2 0 0 Z M2 3 C1.91241997 4.99964982 1.89303424 7.0023611 1.90234375 9.00390625 C1.90484131 10.09775635 1.90733887 11.19160645 1.90991211 12.31860352 C1.91901611 13.71908936 1.92812012 15.1195752 1.9375 16.5625 C1.958125 20.996875 1.97875 25.43125 2 30 C11.24 30 20.48 30 30 30 C30 20.76 30 11.52 30 2 C23.3484375 1.9690625 23.3484375 1.9690625 16.5625 1.9375 C15.16201416 1.928396 13.76152832 1.91929199 12.31860352 1.90991211 C11.22475342 1.90741455 10.13090332 1.90491699 9.00390625 1.90234375 C7.87799072 1.89710693 6.7520752 1.89187012 5.59204102 1.88647461 C3.07029129 1.70454552 3.07029129 1.70454552 2 3 Z " fill="#F0F0F0" transform="translate(0,0)"/>
<path d="M0 0 C4.02590716 -0.41820365 7.94387531 -0.12945079 12 0 C12 5.28 12 10.56 12 16 C4.74 16 -2.52 16 -10 16 C-8.87830688 9.26984127 -8.87830688 9.26984127 -5.5625 6.3125 C-3.26472072 4.22579022 -1.75080266 2.62620399 0 0 Z " fill="#FEFEFE" transform="translate(198,134)"/>
<path d="M0 0 C6.27 0.66 12.54 1.32 19 2 C19 2.33 19 2.66 19 3 C14.71 3 10.42 3 6 3 C6.05800781 4.48113281 6.11601563 5.96226562 6.17578125 7.48828125 C6.22267436 9.42965606 6.268175 11.37106486 6.3125 13.3125 C6.3753418 14.77719727 6.3753418 14.77719727 6.43945312 16.27148438 C6.48522349 18.93531976 6.47849827 21.37822219 6 24 C3.51115591 26.26110672 2.28877982 27.03905393 -1.0625 26.9375 C-3.78770662 25.61885164 -5.23255816 24.48751074 -7 22 C-6.64881869 16.5499362 -5.03430872 12.02207749 -2.9375 7.0625 C-1.968125 4.731875 -0.99875 2.40125 0 0 Z " fill="#F7F6F9" transform="translate(116,156)"/>
<path d="M0 0 C7.92 0 15.84 0 24 0 C24 2.31 24 4.62 24 7 C21.69 7.33 19.38 7.66 17 8 C16.67 8.99 16.34 9.98 16 11 C13.1640625 12.16796875 13.1640625 12.16796875 9.625 13.1875 C7.88089844 13.70376953 7.88089844 13.70376953 6.1015625 14.23046875 C3 15 3 15 0 15 C0 10.05 0 5.1 0 0 Z " fill="#FAF9FB" transform="translate(152,152)"/>
<path d="M0 0 C0.8850119 0.00141495 1.7700238 0.0028299 2.68185425 0.00428772 C5.51449941 0.00989485 8.34706614 0.02244854 11.1796875 0.03515625 C13.09765511 0.04017033 15.01562396 0.0447334 16.93359375 0.04882812 C21.64065532 0.05986659 26.3476581 0.077136 31.0546875 0.09765625 C31.0546875 2.07765625 31.0546875 4.05765625 31.0546875 6.09765625 C15.5446875 6.09765625 0.0346875 6.09765625 -15.9453125 6.09765625 C-14.9553125 5.10765625 -13.9653125 4.11765625 -12.9453125 3.09765625 C-12.2853125 3.09765625 -11.6253125 3.09765625 -10.9453125 3.09765625 C-10.9453125 2.43765625 -10.9453125 1.77765625 -10.9453125 1.09765625 C-7.56138242 -0.59430879 -3.72053459 -0.02220924 0 0 Z " fill="#FEFEFE" transform="translate(118.9453125,211.90234375)"/>
<path d="M0 0 C0.66 0 1.32 0 2 0 C4.63758546 3.57185451 6.83230818 7.45003355 9.125 11.25 C9.78371094 12.31347656 10.44242188 13.37695312 11.12109375 14.47265625 C12.05501953 16.00986328 12.05501953 16.00986328 13.0078125 17.578125 C13.58160645 18.52075195 14.15540039 19.46337891 14.74658203 20.43457031 C16 23 16 23 16 27 C10.72 27 5.44 27 0 27 C0 18.09 0 9.18 0 0 Z " fill="#F9F8FB" transform="translate(62,153)"/>
<path d="M0 0 C3.96 0 7.92 0 12 0 C13.0067004 2.26807204 14.00551766 4.53907754 15 6.8125 C15.28617188 7.45509766 15.57234375 8.09769531 15.8671875 8.75976562 C17.13711041 11.67756469 18 13.78265714 18 17 C12.06 17 6.12 17 0 17 C0 11.39 0 5.78 0 0 Z " fill="#FAFAFC" transform="translate(92,73)"/>
<path d="M0 0 C2.12472576 -0.05386629 4.24983652 -0.09273071 6.375 -0.125 C7.55835938 -0.14820313 8.74171875 -0.17140625 9.9609375 -0.1953125 C13 0 13 0 15 2 C14.01 2 13.02 2 12 2 C12 6.95 12 11.9 12 17 C13.65 17 15.3 17 17 17 C17 14.69 17 12.38 17 10 C17.66 10 18.32 10 19 10 C20.44753273 14.34259819 20.52936942 18.46153948 20 23 C18.26460898 26.23939656 16.57678866 28.42321134 14 31 C11.375 31.125 11.375 31.125 9 31 C10.30916657 26.96340307 11.65632203 25.48079333 15 23 C15.33 21.68 15.66 20.36 16 19 C6.76 19 -2.48 19 -12 19 C-12 20.65 -12 22.3 -12 24 C-12.33 24 -12.66 24 -13 24 C-13.47485386 16.70571708 -13.41090635 11.96068426 -9 6 C-7.40099014 4.21979922 -5.76800455 2.62067084 -4 1 C-3.34 1.33 -2.68 1.66 -2 2 C-2.47050781 2.49628906 -2.94101563 2.99257812 -3.42578125 3.50390625 C-4.04839844 4.18324219 -4.67101562 4.86257812 -5.3125 5.5625 C-5.92738281 6.22378906 -6.54226562 6.88507813 -7.17578125 7.56640625 C-9.56163834 10.54971642 -9.56163834 10.54971642 -12 17 C-4.74 17 2.52 17 10 17 C10 11.72 10 6.44 10 1 C6.7 1 3.4 1 0 1 C0 0.67 0 0.34 0 0 Z " fill="#E8E7EA" transform="translate(200,133)"/>
<path d="M0 0 C4.95 0 9.9 0 15 0 C14.33533318 3.32333412 13.82159397 5.75567432 12.58984375 8.76953125 C12.32236328 9.43017578 12.05488281 10.09082031 11.77929688 10.77148438 C11.50150391 11.44501953 11.22371094 12.11855469 10.9375 12.8125 C10.65583984 13.50537109 10.37417969 14.19824219 10.08398438 14.91210938 C9.39325027 16.60967624 8.69716272 18.30506312 8 20 C5.36 19.67 2.72 19.34 0 19 C0 12.73 0 6.46 0 0 Z " fill="#FDFDFD" transform="translate(92,152)"/>
<path d="M0 0 C18.15 0 36.3 0 55 0 C55 0.99 55 1.98 55 3 C46.75 3 38.5 3 30 3 C30 11.91 30 20.82 30 30 C29.34 30 28.68 30 28 30 C28 21.09 28 12.18 28 3 C18.76 3 9.52 3 0 3 C0 2.01 0 1.02 0 0 Z " fill="#F0F0F0" transform="translate(182,0)"/>
<path d="M0 0 C4.00462838 1.93934833 7.12417556 3.50765388 8.68359375 7.9453125 C9.64688071 12.83846927 8.99691459 15.72398849 6.3125 19.9375 C4.18348909 22.93290741 2.45746159 24.68670064 -1 26 C-4.5625 26.3125 -4.5625 26.3125 -8 26 C-8.99 25.01 -9.98 24.02 -11 23 C-7.37 23 -3.74 23 0 23 C0 22.34 0 21.68 0 21 C-1.32 20.67 -2.64 20.34 -4 20 C-3.5155542 19.5877417 -3.0311084 19.1754834 -2.53198242 18.75073242 C-0.70832867 16.66668126 -0.59077411 15.71459137 -0.48828125 12.98828125 C-0.45283203 12.23095703 -0.41738281 11.47363281 -0.38085938 10.69335938 C-0.35830078 9.90767578 -0.33574219 9.12199219 -0.3125 8.3125 C-0.27833984 7.51521484 -0.24417969 6.71792969 -0.20898438 5.89648438 C-0.12661896 3.93148096 -0.06162933 1.96576304 0 0 Z " fill="#D8D0E3" transform="translate(30,67)"/>
<path d="M0 0 C4.62 0 9.24 0 14 0 C14 6.93 14 13.86 14 21 C10 20 10 20 8.62792969 18.37353516 C8.22993164 17.68565918 7.83193359 16.9977832 7.421875 16.2890625 C6.98359375 15.53882813 6.5453125 14.78859375 6.09375 14.015625 C5.6503125 13.22671875 5.206875 12.4378125 4.75 11.625 C4.29109375 10.84382812 3.8321875 10.06265625 3.359375 9.2578125 C0 3.41889881 0 3.41889881 0 0 Z " fill="#F9F8FA" transform="translate(76,152)"/>
<path d="M0 0 C0.33 0 0.66 0 1 0 C1.02712066 1.43739513 1.04645067 2.87493863 1.0625 4.3125 C1.07410156 5.11300781 1.08570313 5.91351563 1.09765625 6.73828125 C1 9 1 9 0 12 C8.91 12 17.82 12 27 12 C27 12.99 27 13.98 27 15 C17.43 15 7.86 15 -2 15 C-2.33 25.23 -2.66 35.46 -3 46 C-2.34 46.33 -1.68 46.66 -1 47 C-3.97 47 -6.94 47 -10 47 C-9.34 46.34 -8.68 45.68 -8 45 C-15.59 45 -23.18 45 -31 45 C-30.34 42.69 -29.68 40.38 -29 38 C-28.67 38 -28.34 38 -28 38 C-28 39.65 -28 41.3 -28 43 C-20.41 43 -12.82 43 -5 43 C-5 35.08 -5 27.16 -5 19 C-5.66 18.67 -6.32 18.34 -7 18 C-5.824375 16.6078125 -5.824375 16.6078125 -4.625 15.1875 C-1.25979046 10.55437865 -0.67575278 5.57748194 0 0 Z " fill="#E6E5E8" transform="translate(185,18)"/>
<path d="M0 0 C0 3.63 0 7.26 0 11 C-8.91 11 -17.82 11 -27 11 C-24 9 -24 9 -21.875 8 C-19.82955462 7.14139842 -19.82955462 7.14139842 -19 5 C-12.92893002 1.97018165 -6.81623824 0 0 0 Z " fill="#F5F4F7" transform="translate(180,169)"/>
<path d="M0 0 C2.27336035 3.41004053 3.55262173 6.92675923 4.9375 10.75 C6.42393825 14.82534987 7.91704791 18.86674307 9.6796875 22.83203125 C10.95163364 25.88394935 11.29567596 27.74756445 11 31 C10.34 29.68 9.68 28.36 9 27 C-2.385 26.505 -2.385 26.505 -14 26 C-13.67 28.64 -13.34 31.28 -13 34 C-13.66 34 -14.32 34 -15 34 C-15 30.7 -15 27.4 -15 24 C-10.05 24 -5.1 24 0 24 C0 16.08 0 8.16 0 0 Z " fill="#DFDCE2" transform="translate(180,96)"/>
<path d="M0 0 C0.99 0 1.98 0 3 0 C2.96519531 1.05058594 2.93039063 2.10117188 2.89453125 3.18359375 C2.62067238 14.78940062 3.75003882 22.49275343 10.79296875 32.0546875 C12 34 12 34 12 37 C8.04 37 4.08 37 0 37 C0 24.79 0 12.58 0 0 Z " fill="#F8F6F9" transform="translate(92,113)"/>
<path d="M0 0 C1.32 0.33 2.64 0.66 4 1 C4 9.91 4 18.82 4 28 C4.66 28.33 5.32 28.66 6 29 C4.68 29 3.36 29 2 29 C1.05034712 26.86328101 0.10197496 24.7261277 -0.83984375 22.5859375 C-1.59954317 20.89260074 -2.38268252 19.20954103 -3.19140625 17.5390625 C-3.56136719 16.76304688 -3.93132812 15.98703125 -4.3125 15.1875 C-4.83263672 14.12595703 -4.83263672 14.12595703 -5.36328125 13.04296875 C-6.1428557 10.54163477 -5.94214387 9.42746251 -5 7 C-3.80859375 5.078125 -3.80859375 5.078125 -2.4375 3.25 C-1.98246094 2.63640625 -1.52742188 2.0228125 -1.05859375 1.390625 C-0.70925781 0.93171875 -0.35992187 0.4728125 0 0 Z " fill="#F5F4F7" transform="translate(118,59)"/>
<path d="M0 0 C9.24 0 18.48 0 28 0 C28 1.98 28 3.96 28 6 C18.76 6 9.52 6 0 6 C0 4.02 0 2.04 0 0 Z " fill="#FEFEFE" transform="translate(182,212)"/>
<path d="M0 0 C9.24 0 18.48 0 28 0 C28 1.98 28 3.96 28 6 C18.76 6 9.52 6 0 6 C0 4.02 0 2.04 0 0 Z " fill="#FEFEFE" transform="translate(152,212)"/>
<path d="M0 0 C9.24 0 18.48 0 28 0 C28 1.98 28 3.96 28 6 C18.76 6 9.52 6 0 6 C0 4.02 0 2.04 0 0 Z " fill="#FEFEFE" transform="translate(32,212)"/>
<path d="M0 0 C9.24 0 18.48 0 28 0 C28 1.98 28 3.96 28 6 C18.76 6 9.52 6 0 6 C0 4.02 0 2.04 0 0 Z " fill="#FEFEFE" transform="translate(2,212)"/>
<path d="M0 0 C0.90901939 3.04842865 1.06173367 5.59661636 0.87890625 8.765625 C0.83056641 9.65507813 0.78222656 10.54453125 0.73242188 11.4609375 C0.64831055 12.84152344 0.64831055 12.84152344 0.5625 14.25 C0.51029297 15.18585938 0.45808594 16.12171875 0.40429688 17.0859375 C0.27493479 19.39093461 0.13818407 21.69551494 0 24 C4.62 24 9.24 24 14 24 C14.33 23.34 14.66 22.68 15 22 C15.99 23.32 16.98 24.64 18 26 C12.06 26 6.12 26 0 26 C-0.33 26.99 -0.66 27.98 -1 29 C-4.465 27.02 -4.465 27.02 -8 25 C-7.43375164 19.05837993 -5.6793942 14.07178852 -3.4375 8.5625 C-3.10814453 7.73556641 -2.77878906 6.90863281 -2.43945312 6.05664062 C-1.63314164 4.03501907 -0.81751877 2.01711551 0 0 Z " fill="#DCD8E1" transform="translate(152,66)"/>
<path d="M0 0 C0 2.97 0 5.94 0 9 C-0.57105469 8.566875 -1.14210937 8.13375 -1.73046875 7.6875 C-8.72400411 2.88430878 -14.59179941 1.67527048 -23 3 C-25.77477596 4.05460235 -27.57591165 5.22233521 -30 7 C-30.99 7.495 -30.99 7.495 -32 8 C-32 6.02 -32 4.04 -32 2 C-41.24 2 -50.48 2 -60 2 C-60 1.67 -60 1.34 -60 1 C-39.98319038 0.10910033 -20.03266614 -0.12750914 0 0 Z " fill="#ECEBED" transform="translate(182,0)"/>
<path d="M0 0 C8.25 0 16.5 0 25 0 C25 1.98 25 3.96 25 6 C16.75 6 8.5 6 0 6 C0 4.02 0 2.04 0 0 Z " fill="#FFFFFF" transform="translate(212,212)"/>
<path d="M0 0 C5.61 0 11.22 0 17 0 C14.70630303 4.58739393 12.17432528 7.97990604 8 11 C4.6875 11.0625 4.6875 11.0625 2 10 C1.34 9.34 0.68 8.68 0 8 C0 5.36 0 2.72 0 0 Z " fill="#F8F7F9" transform="translate(92,92)"/>
<path d="M0 0 C3.26701237 2.98292434 4.17595017 5.69541039 4.4375 10.0625 C4.3891044 15.97644247 1.58668691 20.44260424 -2 25 C-5.04570623 27.78986691 -5.65469216 28 -10 28 C-9.48202222 23.87056605 -8.36072342 21.86469046 -5.5 18.875 C-1.49945771 14.66131406 -0.87038782 11.56372393 -0.4375 5.8125 C-0.35371094 4.72582031 -0.26992187 3.63914062 -0.18359375 2.51953125 C-0.12300781 1.68808594 -0.06242188 0.85664062 0 0 Z " fill="#8B65BE" transform="translate(145,112)"/>
<path d="M0 0 C4.76894044 0 6.29400109 0.14469327 9.7734375 3.22265625 C12.17422648 6.70150652 11.98404669 10.89202239 12 15 C11.01 15 10.02 15 9 15 C7.5393715 12.35261084 7 11.10551666 7 8 C6.34 8 5.68 8 5 8 C5 10.31 5 12.62 5 15 C3.35 15 1.7 15 0 15 C0 10.05 0 5.1 0 0 Z " fill="#F7F6F8" transform="translate(212,135)"/>
<path d="M0 0 C1.32 0 2.64 0 4 0 C4 6.6 4 13.2 4 20 C0.37 20 -3.26 20 -7 20 C-6.38125 18.906875 -5.7625 17.81375 -5.125 16.6875 C-2.90608104 12.31238771 -2.10480576 8.0485401 -1.39453125 3.22265625 C-1 1 -1 1 0 0 Z " fill="#DCD8E1" transform="translate(118,192)"/>
<path d="M0 0 C0.66 0.99 1.32 1.98 2 3 C1.34 3 0.68 3 0 3 C-0.33 6.63 -0.66 10.26 -1 14 C-13.54 14 -26.08 14 -39 14 C-33.70164615 10.4677641 -28.09910931 8.61813104 -22 7 C-23.63412443 8.70840281 -24.86906094 9.93453047 -27 11 C-19.08 11.33 -11.16 11.66 -3 12 C-3 8.37 -3 4.74 -3 1 C-5.31 1.33 -7.62 1.66 -10 2 C-5.97723701 -0.68184199 -4.66868926 -1.40060678 0 0 Z " fill="#D7D3DC" transform="translate(183,168)"/>
<path d="M0 0 C17.01262871 -0.86115668 17.01262871 -0.86115668 21.5625 2.4375 C24 5 24 5 24 6 C16.08 6 8.16 6 0 6 C0 4.02 0 2.04 0 0 Z " fill="#FDFCFD" transform="translate(62,212)"/>
<path d="M0 0 C0.99 0 1.98 0 3 0 C4.55562154 2.08506826 5.87669581 4.08199957 7.1875 6.3125 C7.55552734 6.90740234 7.92355469 7.50230469 8.30273438 8.11523438 C10.0105129 10.95097051 11 12.63369715 11 16 C7.37 16 3.74 16 0 16 C0 10.72 0 5.44 0 0 Z " fill="#F7F6F9" transform="translate(32,104)"/>
<path d="M0 0 C0.33 0 0.66 0 1 0 C1 4.62 1 9.24 1 14 C0.67 14 0.34 14 0 14 C0 12.02 0 10.04 0 8 C-7.92 8 -15.84 8 -24 8 C-23.67 13.28 -23.34 18.56 -23 24 C-23.99 24 -24.98 24 -26 24 C-26.33 19.71 -26.66 15.42 -27 11 C-28.65 11.33 -30.3 11.66 -32 12 C-29.67350413 9.49280542 -27.17318479 7.67816399 -24.3125 5.8125 C-23.50425781 5.28269531 -22.69601563 4.75289062 -21.86328125 4.20703125 C-21.24839844 3.80871094 -20.63351563 3.41039062 -20 3 C-20 3.66 -20 4.32 -20 5 C-13.4 5.33 -6.8 5.66 0 6 C0 4.02 0 2.04 0 0 Z " fill="#E2E0E5" transform="translate(176,144)"/>
<path d="M0 0 C0.99 1.32 1.98 2.64 3 4 C-10.86 3.505 -10.86 3.505 -25 3 C-25 11.58 -25 20.16 -25 29 C-25.99 29.33 -26.98 29.66 -28 30 C-27.84144531 29.47019531 -27.68289062 28.94039062 -27.51953125 28.39453125 C-26.18348381 22.23665847 -25.61657483 14.58995324 -28.75 8.9375 C-30.69841713 6.39373319 -32.61178139 4.13233805 -35 2 C-32.04831411 0.52415706 -29.07176218 0.89843298 -25.83984375 0.9375 C-25.13477188 0.94128662 -24.42970001 0.94507324 -23.70326233 0.94897461 C-21.44794678 0.96120928 -19.19275786 0.97984449 -16.9375 1 C-13.96745153 1.0264817 -10.9974652 1.04652715 -8.02734375 1.0625 C-6.99455544 1.07494751 -6.99455544 1.07494751 -5.94090271 1.08764648 C-4.29369838 1.09622683 -2.64636573 1.05325029 -1 1 C-0.67 0.67 -0.34 0.34 0 0 Z " fill="#E6E4E8" transform="translate(147,29)"/>
<path d="M0 0 C0.66 1.32 1.32 2.64 2 4 C-3.61 3.67 -9.22 3.34 -15 3 C-14.67 12.24 -14.34 21.48 -14 31 C-15.98 30.34 -17.96 29.68 -20 29 C-19.01 28.67 -18.02 28.34 -17 28 C-17 19.75 -17 11.5 -17 3 C-21.8014682 3.32798696 -21.8014682 3.32798696 -26.6027832 3.65820312 C-29.40909117 3.84762046 -32.18644347 4 -35 4 C-36.6875 2.5 -36.6875 2.5 -38 1 C-25.28867976 0.89231906 -12.67012175 0.87910455 0 2 C0 1.34 0 0.68 0 0 Z " fill="#E5E3E7" transform="translate(77,59)"/>
<path d="M0 0 C1.09570312 0.00902344 2.19140625 0.01804688 3.3203125 0.02734375 C4.16335937 0.03894531 5.00640625 0.05054688 5.875 0.0625 C5.875 2.0425 5.875 4.0225 5.875 6.0625 C-0.395 6.0625 -6.665 6.0625 -13.125 6.0625 C-12.135 5.0725 -11.145 4.0825 -10.125 3.0625 C-9.465 3.0625 -8.805 3.0625 -8.125 3.0625 C-8.125 2.4025 -8.125 1.7425 -8.125 1.0625 C-5.36047967 -0.31976016 -3.0788637 -0.03275387 0 0 Z " fill="#F8F8F9" transform="translate(116.125,211.9375)"/>
<path d="M0 0 C4.62 0 9.24 0 14 0 C14 0.66 14 1.32 14 2 C13.34 2 12.68 2 12 2 C12 7.28 12 12.56 12 18 C15.96 17.67 19.92 17.34 24 17 C24.66 18.65 25.32 20.3 26 22 C25.34 21.67 24.68 21.34 24 21 C19.34005103 20.54741503 14.67317512 20.29738387 10 20 C10 14.06 10 8.12 10 2 C7.03 2 4.06 2 1 2 C0.67 1.34 0.34 0.68 0 0 Z " fill="#E4E1E9" transform="translate(20,102)"/>
<path d="M0 0 C6.27 0.66 12.54 1.32 19 2 C19 2.33 19 2.66 19 3 C14.71 3 10.42 3 6 3 C6.05800781 4.48113281 6.11601563 5.96226562 6.17578125 7.48828125 C6.22267436 9.42965606 6.268175 11.37106486 6.3125 13.3125 C6.3753418 14.77719727 6.3753418 14.77719727 6.43945312 16.27148438 C6.48522103 18.93517652 6.47785977 21.37826785 6 24 C3.6171875 26.17578125 3.6171875 26.17578125 1 27 C-1.1875 26.875 -1.1875 26.875 -3 26 C-3.66 25.01 -4.32 24.02 -5 23 C-2.03 23.33 0.94 23.66 4 24 C4 16.74 4 9.48 4 2 C2.68 2.33 1.36 2.66 0 3 C0 2.01 0 1.02 0 0 Z " fill="#D7D3DE" transform="translate(116,156)"/>
<path d="M0 0 C5.61 0 11.22 0 17 0 C17 2.31 17 4.62 17 7 C11.534524 6.41856638 5.95421849 5.48774061 1 3 C0.67 2.01 0.34 1.02 0 0 Z " fill="#F1EEF4" transform="translate(73,92)"/>
<path d="M0 0 C1.5625 1.0625 1.5625 1.0625 3 3 C3 7.46035162 2.46806564 9.44792257 -0.4375 12.875 C-4.22403295 16.01505171 -6.13794125 16.10569693 -11 16 C-10.01 15.34 -9.02 14.68 -8 14 C-8 13.01 -8 12.02 -8 11 C-6.7934375 10.38125 -6.7934375 10.38125 -5.5625 9.75 C-2.58855201 8.16131661 -2.58855201 8.16131661 -2.3125 4.375 C-2.209375 3.26125 -2.10625 2.1475 -2 1 C-1.34 0.67 -0.68 0.34 0 0 Z " fill="#DBD0EA" transform="translate(173,15)"/>
<path d="M0 0 C0.66 0.33 1.32 0.66 2 1 C1.52949219 1.49628906 1.05898437 1.99257812 0.57421875 2.50390625 C-0.04839844 3.18324219 -0.67101562 3.86257812 -1.3125 4.5625 C-1.92738281 5.22378906 -2.54226562 5.88507813 -3.17578125 6.56640625 C-5.56163834 9.54971642 -5.56163834 9.54971642 -8 16 C-0.74 16 6.52 16 14 16 C14 16.66 14 17.32 14 18 C6.74 18 -0.52 18 -8 18 C-8 19.65 -8 21.3 -8 23 C-8.33 23 -8.66 23 -9 23 C-9.47485386 15.70571708 -9.41090635 10.96068426 -5 5 C-3.40099014 3.21979922 -1.76800455 1.62067084 0 0 Z " fill="#EDEDED" transform="translate(196,134)"/>
<path d="M0 0 C1.65 0.33 3.3 0.66 5 1 C4.01 1.33 3.02 1.66 2 2 C2 11.24 2 20.48 2 30 C-0.57644287 27.42355713 -1.68769359 25.96726521 -3.1875 22.8125 C-3.53167969 22.09707031 -3.87585937 21.38164063 -4.23046875 20.64453125 C-4.48441406 20.10183594 -4.73835938 19.55914062 -5 19 C-3.35 19.33 -1.7 19.66 0 20 C0 13.4 0 6.8 0 0 Z " fill="#EAE8EB" transform="translate(60,100)"/>
<path d="M0 0 C0.66 0.33 1.32 0.66 2 1 C2.56475645 12.94355301 2.56475645 12.94355301 -1 17 C-3.67602534 19.60560362 -5.05694679 20.91617305 -8.8125 21.25 C-9.534375 21.1675 -10.25625 21.085 -11 21 C-9.86280581 17.58841744 -8.95657056 16.88145399 -6 15 C-5.34 15 -4.68 15 -4 15 C-1.76059686 10.20127899 -0.9439136 5.17144153 0 0 Z " fill="#B8AAC9" transform="translate(108,188)"/>
<path d="M0 0 C1.06057617 -0.01160156 1.06057617 -0.01160156 2.14257812 -0.0234375 C5.89630595 -0.00933899 8.75356496 0.16596979 11.9375 2.25 C10.9475 2.745 10.9475 2.745 9.9375 3.25 C8.9475 2.92 7.9575 2.59 6.9375 2.25 C2.26782246 2.11409553 -2.38987985 2.20713193 -7.0625 2.25 C-7.3925 9.84 -7.7225 17.43 -8.0625 25.25 C-8.7225 25.25 -9.3825 25.25 -10.0625 25.25 C-10.0625 18.32 -10.0625 11.39 -10.0625 4.25 C-12.0425 4.91 -14.0225 5.57 -16.0625 6.25 C-12.12799023 0.03761615 -6.89064895 -0.07579082 0 0 Z " fill="#CAC2D3" transform="translate(130.0625,96.75)"/>
<path d="M0 0 C12.21 0 24.42 0 37 0 C37 0.66 37 1.32 37 2 C30.73 2 24.46 2 18 2 C18 2.66 18 3.32 18 4 C18.99 4.33 19.98 4.66 21 5 C20.01 5.495 20.01 5.495 19 6 C18.21625 5.54625 17.4325 5.0925 16.625 4.625 C12.1743019 2.62985947 8.34167702 2.50464372 3.51171875 2.30859375 C2.68285156 2.20675781 1.85398438 2.10492188 1 2 C0.67 1.34 0.34 0.68 0 0 Z " fill="#E2E0E5" transform="translate(200,120)"/>
<path d="M0 0 C3.12786541 0.90543472 4.63918447 1.3814591 6.3125 4.25 C7.53232892 9.1293157 7.60994817 11.86423445 5.1875 16.375 C4.465625 17.24125 3.74375 18.1075 3 19 C2.01 19 1.02 19 0 19 C0.875 14.125 0.875 14.125 2 13 C2.25005386 10.04182893 2.25005386 10.04182893 2 7 C1.34 6.34 0.68 5.68 0 5 C-0.125 2.375 -0.125 2.375 0 0 Z " fill="#F1EDF5" transform="translate(32,69)"/>
<path d="M0 0 C8.25 0 16.5 0 25 0 C25 0.99 25 1.98 25 3 C16.75 3 8.5 3 0 3 C0 2.01 0 1.02 0 0 Z " fill="#F2F2F2" transform="translate(212,30)"/>
<path d="M0 0 C2.6956957 1.54039754 5.1399776 3.1126649 7.5625 5.0625 C9.67095905 6.73845463 11.55360505 7.91271336 14 9 C14 9.33 14 9.66 14 10 C9.38 10 4.76 10 0 10 C0 6.7 0 3.4 0 0 Z " fill="#FAF9FB" transform="translate(182,170)"/>
<path d="M0 0 C0.66 0.33 1.32 0.66 2 1 C3.03220924 12.64102643 3.03220924 12.64102643 -0.75 17.25 C-2.296875 18.890625 -2.296875 18.890625 -4 20 C-5.32 20 -6.64 20 -8 20 C-6.95603344 17.04209475 -5.85686731 14.80319255 -4 12.25 C-1.54787466 8.26529631 -0.77112592 4.56587714 0 0 Z " fill="#B1A2C4" transform="translate(112,42)"/>
<path d="M0 0 C0.84884766 0.36738281 0.84884766 0.36738281 1.71484375 0.7421875 C1.09609375 0.8246875 0.47734375 0.9071875 -0.16015625 0.9921875 C-2.4290643 1.52816593 -2.4290643 1.52816593 -3.28515625 3.5546875 C-3.61515625 4.2765625 -3.94515625 4.9984375 -4.28515625 5.7421875 C-6.28515625 7.9921875 -6.28515625 7.9921875 -8.28515625 9.7421875 C-8.94515625 9.7421875 -9.60515625 9.7421875 -10.28515625 9.7421875 C-12.03656556 17.84245558 -12.06600852 25.9210405 -9.28515625 33.7421875 C-13.20618479 30.35584467 -14.17206245 27.09931313 -14.59765625 21.9921875 C-14.25740458 12.92448057 -10.87156151 7.66151868 -4.5390625 1.296875 C-2.28515625 -0.2578125 -2.28515625 -0.2578125 0 0 Z " fill="#7C5AA8" transform="translate(16.28515625,58.2578125)"/>
<path d="M0 0 C1.32 0.33 2.64 0.66 4 1 C4 9.91 4 18.82 4 28 C4.66 28.33 5.32 28.66 6 29 C4.68 29 3.36 29 2 29 C1.34 27.35 0.68 25.7 0 24 C0.33 24 0.66 24 1 24 C1.33 17.07 1.66 10.14 2 3 C0.02 3.99 0.02 3.99 -2 5 C-1.34 3.35 -0.68 1.7 0 0 Z " fill="#DFDDE3" transform="translate(118,59)"/>
<path d="M0 0 C0.33 0 0.66 0 1 0 C1.50224661 6.27808258 1.19082691 9.94635578 -3 15 C-5 17 -5 17 -7.625 17.125 C-8.40875 17.08375 -9.1925 17.0425 -10 17 C-9.00741309 13.75153376 -8.33186928 12.24677459 -5.5625 10.1875 C-2.03063222 7.17249092 -1.39055522 4.39122699 0 0 Z " fill="#B694E1" transform="translate(219,147)"/>
<path d="M0 0 C2.31 0 4.62 0 7 0 C7.875 2.125 7.875 2.125 8 5 C6.30628631 7.35575162 4.33495622 9.27981706 2 11 C1.34 11 0.68 11 0 11 C0 7.37 0 3.74 0 0 Z " fill="#F9F8FA" transform="translate(182,122)"/>
<path d="M0 0 C4.00535955 4.00535955 4.51342545 4.59397814 5.25 9.75 C5.39953125 10.73484375 5.5490625 11.7196875 5.703125 12.734375 C5.80109375 13.48203125 5.8990625 14.2296875 6 15 C4.02 15 2.04 15 0 15 C0 10.05 0 5.1 0 0 Z " fill="#F6F4F7" transform="translate(182,105)"/>
<path d="M0 0 C0 2.97 0 5.94 0 9 C-0.59425781 8.57847656 -1.18851563 8.15695312 -1.80078125 7.72265625 C-8.22575172 3.47598059 -13.31671104 2.02921403 -21 2 C-21 1.67 -21 1.34 -21 1 C-17.87504511 0.83248032 -14.75002908 0.66612942 -11.625 0.5 C-10.73554688 0.45230469 -9.84609375 0.40460937 -8.9296875 0.35546875 C-7.65351563 0.28779297 -7.65351563 0.28779297 -6.3515625 0.21875 C-5.56604004 0.17685547 -4.78051758 0.13496094 -3.97119141 0.09179688 C-2.64854076 0.03020205 -1.32408408 0 0 0 Z " fill="#EDEDED" transform="translate(182,0)"/>
<path d="M0 0 C4.29 0 8.58 0 13 0 C11.515 1.98 11.515 1.98 10 4 C11.32 4.33 12.64 4.66 14 5 C10.92805092 6.53597454 8.39755707 6.2265038 5 6 C1.5625 4.5 1.5625 4.5 -1 3 C-0.67 2.01 -0.34 1.02 0 0 Z " fill="#4C287B" transform="translate(87,205)"/>
<path d="M0 0 C0.33 0 0.66 0 1 0 C1 1.65 1 3.3 1 5 C13.375 4.505 13.375 4.505 26 4 C26 5.32 26 6.64 26 8 C26.66 8.33 27.32 8.66 28 9 C25.03 9 22.06 9 19 9 C19.66 8.34 20.32 7.68 21 7 C13.41 7 5.82 7 -2 7 C-1.34 4.69 -0.68 2.38 0 0 Z " fill="#DEDBE2" transform="translate(156,56)"/>
<path d="M0 0 C0.66 0 1.32 0 2 0 C3.4706777 2.9413554 3.17048999 5.60227405 3.1875 8.875 C3.20167969 10.10992187 3.21585938 11.34484375 3.23046875 12.6171875 C3.01765455 15.74086712 2.65237226 17.40061596 1 20 C0.67 20 0.34 20 0 20 C0 13.4 0 6.8 0 0 Z " fill="#F2F0F4" transform="translate(152,113)"/>
<path d="M0 0 C0.99 0.66 1.98 1.32 3 2 C3 2.66 3 3.32 3 4 C-2.28 4 -7.56 4 -13 4 C-13 5.98 -13 7.96 -13 10 C-13.66 10 -14.32 10 -15 10 C-15 7.36 -15 4.72 -15 2 C-10.05 2 -5.1 2 0 2 C0 1.34 0 0.68 0 0 Z " fill="#E4E2E6" transform="translate(75,208)"/>
<path d="M0 0 C0.33 0 0.66 0 1 0 C1 5.61 1 11.22 1 17 C-0.98 17 -2.96 17 -5 17 C-4.1014491 13.72670742 -3.21195986 10.52366553 -1.9375 7.375 C-0.97132778 4.92736371 -0.44377252 2.58867303 0 0 Z " fill="#F9F8FB" transform="translate(119,193)"/>
<path d="M0 0 C4.29 0.33 8.58 0.66 13 1 C13 1.33 13 1.66 13 2 C9.37 2 5.74 2 2 2 C2 7.61 2 13.22 2 19 C1.34 19 0.68 19 0 19 C0 12.73 0 6.46 0 0 Z " fill="#E7E5E9" transform="translate(90,71)"/>
<path d="M0 0 C0.33 0.66 0.66 1.32 1 2 C6.94 2 12.88 2 19 2 C19 2.66 19 3.32 19 4 C12.73 4 6.46 4 0 4 C-0.33 4.99 -0.66 5.98 -1 7 C-1.625 5.1875 -1.625 5.1875 -2 3 C-1.34 2.01 -0.68 1.02 0 0 Z " fill="#E3E1E6" transform="translate(191,88)"/>
<path d="M0 0 C0.33 0 0.66 0 1 0 C1 4.29 1 8.58 1 13 C-0.65 13 -2.3 13 -4 13 C-3.88637738 11.5199159 -3.75877092 10.04089926 -3.625 8.5625 C-3.55539063 7.73878906 -3.48578125 6.91507812 -3.4140625 6.06640625 C-3.20910156 5.04353516 -3.20910156 5.04353516 -3 4 C-2.34 3.67 -1.68 3.34 -1 3 C-0.67 2.01 -0.34 1.02 0 0 Z " fill="#F5F4F7" transform="translate(149,77)"/>
<path d="M0 0 C7.26 0 14.52 0 22 0 C21.67 1.65 21.34 3.3 21 5 C20.67 4.01 20.34 3.02 20 2 C13.4 2 6.8 2 0 2 C0 1.34 0 0.68 0 0 Z " fill="#EEEEEF" transform="translate(122,60)"/>
<path d="M0 0 C0.66 0 1.32 0 2 0 C3.71005023 5.13015068 3.87607779 10.13357339 1.5625 15.0625 C0.7890625 16.0215625 0.7890625 16.0215625 0 17 C-0.33 17 -0.66 17 -1 17 C-0.67 11.39 -0.34 5.78 0 0 Z " fill="#684596" transform="translate(146,115)"/>
<path d="M0 0 C0.33 0.66 0.66 1.32 1 2 C0.67 2.99 0.34 3.98 0 5 C0.66 5.33 1.32 5.66 2 6 C1 7 1 7 -1.06640625 7.09765625 C-1.89011719 7.08605469 -2.71382812 7.07445312 -3.5625 7.0625 C-4.38878906 7.05347656 -5.21507812 7.04445312 -6.06640625 7.03515625 C-6.70449219 7.02355469 -7.34257813 7.01195312 -8 7 C-8 5.68 -8 4.36 -8 3 C-5.36 2.01 -2.72 1.02 0 0 Z " fill="#E3D4F8" transform="translate(135,135)"/>
<path d="M0 0 C2.05078125 0.03255208 4.1015625 0.06510417 6.15234375 0.09765625 C6.15234375 0.42765625 6.15234375 0.75765625 6.15234375 1.09765625 C5.57226562 1.23300781 4.9921875 1.36835937 4.39453125 1.5078125 C-1.74954973 3.20098333 -5.57634008 5.5199445 -8.84765625 11.09765625 C-9.79933004 14.35904977 -9.79933004 14.35904977 -9.84765625 17.09765625 C-10.17765625 17.09765625 -10.50765625 17.09765625 -10.84765625 17.09765625 C-11.29699546 8.26065184 -11.29699546 8.26065184 -7.84765625 4.09765625 C-5.22265625 2.34765625 -5.22265625 2.34765625 -2.84765625 1.09765625 C-1.84765625 0.09765625 -1.84765625 0.09765625 0 0 Z " fill="#D0C4DF" transform="translate(22.84765625,65.90234375)"/>
<path d="M0 0 C1.5625 1.0625 1.5625 1.0625 3 3 C2.6875 6.6875 2.6875 6.6875 2 10 C1.01 10 0.02 10 -1 10 C-1.99 10.495 -1.99 10.495 -3 11 C-2.8864371 9.35333797 -2.75882619 7.70763918 -2.625 6.0625 C-2.55539063 5.14597656 -2.48578125 4.22945312 -2.4140625 3.28515625 C-2.27742187 2.53105469 -2.14078125 1.77695312 -2 1 C-1.34 0.67 -0.68 0.34 0 0 Z " fill="#BFAFD3" transform="translate(173,15)"/>
<path d="M0 0 C1.24546405 2.49092811 0.7767578 3.41080733 0 6 C0.66 6.33 1.32 6.66 2 7 C-1.06117568 9.62386487 -1.73173127 10 -6 10 C-5.58578031 5.16743695 -3.53586014 3.17320782 0 0 Z " fill="#AF89E1" transform="translate(141,130)"/>
<path d="M0 0 C0.33 0.66 0.66 1.32 1 2 C-5.27 2 -11.54 2 -18 2 C-18 1.34 -18 0.68 -18 0 C-15.75067773 -0.1954625 -13.50049858 -0.38108226 -11.25 -0.5625 C-9.99703125 -0.66691406 -8.7440625 -0.77132812 -7.453125 -0.87890625 C-2.58912718 -1.04947631 -2.58912718 -1.04947631 0 0 Z " fill="#E9E8EA" transform="translate(200,180)"/>
<path d="M0 0 C0.66 0.33 1.32 0.66 2 1 C2.49348175 5.14524671 2.13854307 6.779961 -0.125 10.375 C-3 13 -3 13 -6.3125 13.375 C-7.199375 13.25125 -8.08625 13.1275 -9 13 C-8.67 12.34 -8.34 11.68 -8 11 C-7.195625 10.87625 -6.39125 10.7525 -5.5625 10.625 C-2.92162572 10.27031008 -2.92162572 10.27031008 -1.75 8.3125 C-0.85850524 5.5637245 -0.39002962 2.86021719 0 0 Z " fill="#705B8C" transform="translate(187,75)"/>
<path d="M0 0 C0.66 0.33 1.32 0.66 2 1 C1.51789063 1.53109375 1.03578125 2.0621875 0.5390625 2.609375 C-0.09257812 3.31578125 -0.72421875 4.0221875 -1.375 4.75 C-2.00148437 5.44609375 -2.62796875 6.1421875 -3.2734375 6.859375 C-6.28483988 10.5929689 -7.24825205 13.47785927 -7.625 18.25 C-7.73714844 19.58804688 -7.73714844 19.58804688 -7.8515625 20.953125 C-7.90054688 21.62859375 -7.94953125 22.3040625 -8 23 C-8.33 23 -8.66 23 -9 23 C-9.47485386 15.70571708 -9.41090635 10.96068426 -5 5 C-3.40099014 3.21979922 -1.76800455 1.62067084 0 0 Z " fill="#CDC6D7" transform="translate(196,134)"/>
<path d="M0 0 C0.66 0 1.32 0 2 0 C-0.07884857 4.56135706 -2.87897497 8.10651434 -7 11 C-9.92474935 11.58699158 -11.99131868 11.36948718 -15 11 C-15 10.34 -15 9.68 -15 9 C-14.10796875 9.0928125 -13.2159375 9.185625 -12.296875 9.28125 C-8.05948615 8.91976659 -7.04217726 7.61953597 -4.25 4.5 C-2.86352596 2.97204902 -1.45310445 1.46472929 0 0 Z " fill="#5A3984" transform="translate(109,93)"/>
<path d="M0 0 C-0.99 1.485 -0.99 1.485 -2 3 C-1.01 3.33 -0.02 3.66 1 4 C-1.35346396 5.17673198 -2.8806033 5.16623866 -5.5 5.1875 C-6.2940625 5.20167969 -7.088125 5.21585937 -7.90625 5.23046875 C-10 5 -10 5 -12 3 C-10.3789897 2.30314502 -8.75303934 1.61777139 -7.125 0.9375 C-6.22007813 0.55464844 -5.31515625 0.17179687 -4.3828125 -0.22265625 C-2 -1 -2 -1 0 0 Z " fill="#715595" transform="translate(106,59)"/>
<path d="M0 0 C2.31 0.33 4.62 0.66 7 1 C7 4.3 7 7.6 7 11 C4.42355713 8.42355713 3.31230641 6.96726521 1.8125 3.8125 C1.46832031 3.09707031 1.12414063 2.38164063 0.76953125 1.64453125 C0.51558594 1.10183594 0.26164062 0.55914062 0 0 Z " fill="#E3E0E7" transform="translate(55,119)"/>
<path d="M0 0 C1.32 1.32 2.64 2.64 4 4 C-1.94 4 -7.88 4 -14 4 C-14 3.34 -14 2.68 -14 2 C-9.38 2 -4.76 2 0 2 C0 1.34 0 0.68 0 0 Z " fill="#E1DFE4" transform="translate(166,88)"/>
<path d="M0 0 C1.98 0 3.96 0 6 0 C5.8125 2.3125 5.8125 2.3125 5 5 C2.4375 6.8125 2.4375 6.8125 0 8 C0 5.36 0 2.72 0 0 Z " fill="#F4F3F6" transform="translate(210,152)"/>
<path d="M0 0 C1.36207958 2.72415916 0.86166193 4.12779357 0 7 C-3.22791555 9.1519437 -4.28400809 9.20086443 -8 9 C-6.86280581 5.58841744 -5.95657056 4.88145399 -3 3 C-2.34 3 -1.68 3 -1 3 C-0.67 2.01 -0.34 1.02 0 0 Z " fill="#8D76AA" transform="translate(105,200)"/>
<path d="M0 0 C1.65 0 3.3 0 5 0 C4.39301257 4.12751449 2.96189209 7.3321148 1 11 C0.67 11 0.34 11 0 11 C0 7.37 0 3.74 0 0 Z " fill="#F9F8FA" transform="translate(2,62)"/>
<path d="M0 0 C4.29 0 8.58 0 13 0 C10.08235 1.9451 8.37462715 2.45276317 5 3 C7.31 3.66 9.62 4.32 12 5 C12 5.33 12 5.66 12 6 C4.69565217 6.36521739 4.69565217 6.36521739 1.5 4.6875 C0 3 0 3 0 0 Z " fill="#4C287B" transform="translate(90,59)"/>
<path d="M0 0 C0.33 0.66 0.66 1.32 1 2 C0.67 2.66 0.34 3.32 0 4 C0.99 4 1.98 4 3 4 C3 5.65 3 7.3 3 9 C4.32 8.67 5.64 8.34 7 8 C6.67 8.66 6.34 9.32 6 10 C4.35 10 2.7 10 1 10 C1 8.35 1 6.7 1 5 C-0.65 4.67 -2.3 4.34 -4 4 C-3.67 3.01 -3.34 2.02 -3 1 C-2.01 0.67 -1.02 0.34 0 0 Z " fill="#D7CCE4" transform="translate(209,160)"/>
<path d="M0 0 C0.66 0 1.32 0 2 0 C3.12377697 3.30435084 2.89554742 5.0506862 1.5625 8.25 C1.27503906 8.95640625 0.98757812 9.6628125 0.69140625 10.390625 C0.46324219 10.92171875 0.23507813 11.4528125 0 12 C-0.33 11.01 -0.66 10.02 -1 9 C-2.98 9 -4.96 9 -7 9 C-7 8.34 -7 7.68 -7 7 C-4.69 7 -2.38 7 0 7 C0 4.69 0 2.38 0 0 Z " fill="#DAD3E4" transform="translate(217,143)"/>
<path d="M0 0 C3.25985541 4.34647388 3.34252339 4.7480032 2.6875 9.75 C2.56761719 10.73484375 2.44773438 11.7196875 2.32421875 12.734375 C2.21722656 13.48203125 2.11023438 14.2296875 2 15 C1.01 15 0.02 15 -1 15 C-0.67 10.05 -0.34 5.1 0 0 Z " fill="#E0DEE3" transform="translate(150,107)"/>
<path d="M0 0 C-2.31 0.33 -4.62 0.66 -7 1 C-7 2.32 -7 3.64 -7 5 C-8.65 4.67 -10.3 4.34 -12 4 C-11.67 2.68 -11.34 1.36 -11 0 C-3.57142857 -1.28571429 -3.57142857 -1.28571429 0 0 Z " fill="#F3ECFC" transform="translate(134,137)"/>
<path d="M0 0 C0.33 0 0.66 0 1 0 C1.05422947 1.4370809 1.09289723 2.87475462 1.125 4.3125 C1.14820313 5.11300781 1.17140625 5.91351563 1.1953125 6.73828125 C1 9 1 9 -1 12 C-1.66 12 -2.32 12 -3 12 C-2.40075776 7.80530429 -1.42500059 3.99000166 0 0 Z " fill="#744EA6" transform="translate(219,147)"/>
<path d="M0 0 C0.59425781 0.22042969 1.18851563 0.44085938 1.80078125 0.66796875 C1.18203125 0.75046875 0.56328125 0.83296875 -0.07421875 0.91796875 C-2.89562049 1.9137576 -2.91849833 3.03119141 -4.19921875 5.66796875 C-6.82421875 7.91796875 -6.82421875 7.91796875 -9.19921875 9.66796875 C-8.6159748 6.44255946 -7.67707077 4.69220765 -5.38671875 2.35546875 C-4.88527344 1.82308594 -4.38382813 1.29070313 -3.8671875 0.7421875 C-2.19921875 -0.33203125 -2.19921875 -0.33203125 0 0 Z " fill="#643C97" transform="translate(16.19921875,58.33203125)"/>
<path d="M0 0 C0.33 1.32 0.66 2.64 1 4 C3.31 4 5.62 4 8 4 C8 5.65 8 7.3 8 9 C5.36 7.68 2.72 6.36 0 5 C0 3.35 0 1.7 0 0 Z " fill="#C8C2D1" transform="translate(144,86)"/>
<path d="M0 0 C0.98120464 3.05263664 0.98120464 4.94736336 0 8 C-1.65 8.33 -3.3 8.66 -5 9 C-3.7508258 5.54074837 -2.32472205 2.85306797 0 0 Z " fill="#9885B2" transform="translate(109,53)"/>
<path d="M0 0 C0.66 0 1.32 0 2 0 C2.33 3.96 2.66 7.92 3 12 C2.01 12 1.02 12 0 12 C0 8.04 0 4.08 0 0 Z " fill="#EBEBEC" transform="translate(180,122)"/>
<path d="M0 0 C0.66 0 1.32 0 2 0 C2.22786458 2.01822917 2.45572917 4.03645833 2.68359375 6.0546875 C2.91292961 8.07404316 2.91292961 8.07404316 4 10 C1.69 9.34 -0.62 8.68 -3 8 C-2.01 7.67 -1.02 7.34 0 7 C0 4.69 0 2.38 0 0 Z " fill="#D4CDDB" transform="translate(90,92)"/>
<path d="M0 0 C0.66 0.33 1.32 0.66 2 1 C0.90344712 2.31886772 -0.20253423 3.62990057 -1.3125 4.9375 C-1.92738281 5.66839844 -2.54226562 6.39929687 -3.17578125 7.15234375 C-5 9 -5 9 -8 10 C-6.34908222 5.70761377 -3.26245434 3.1206085 0 0 Z " fill="#674890" transform="translate(86,28)"/>
<path d="M0 0 C1.43861294 0.08746284 2.87597508 0.19565348 4.3125 0.3125 C5.11300781 0.37050781 5.91351563 0.42851562 6.73828125 0.48828125 C9.36272334 1.08206694 10.30820672 1.95780294 12 4 C11.22914063 3.9278125 10.45828125 3.855625 9.6640625 3.78125 C8.66117188 3.6884375 7.65828125 3.595625 6.625 3.5 C5.12839844 3.36078125 5.12839844 3.36078125 3.6015625 3.21875 C1.10296264 2.97207053 1.10296264 2.97207053 -1 3 C-0.67 2.01 -0.34 1.02 0 0 Z " fill="#B0A4C0" transform="translate(161,139)"/>
<path d="M0 0 C1.485 0.99 1.485 0.99 3 2 C2.5020163 5.73487777 2.12508244 7.81237635 0 11 C0 7.37 0 3.74 0 0 Z " fill="#E1DEE4" transform="translate(150,34)"/>
<path d="M0 0 C4.95 0 9.9 0 15 0 C15 0.99 15 1.98 15 3 C7.575 2.01 7.575 2.01 0 1 C0 0.67 0 0.34 0 0 Z " fill="#AEA4BD" transform="translate(161,1)"/>
<path d="M0 0 C1.98 0 3.96 0 6 0 C6 0.66 6 1.32 6 2 C7.32 2.33 8.64 2.66 10 3 C2.25 3.125 2.25 3.125 0 2 C0 1.34 0 0.68 0 0 Z " fill="#684A8F" transform="translate(91,207)"/>
<path d="M0 0 C0.66 0.33 1.32 0.66 2 1 C2.25 6.625 2.25 6.625 0 10 C-0.66 9.67 -1.32 9.34 -2 9 C-1.34 6.03 -0.68 3.06 0 0 Z " fill="#9080A5" transform="translate(187,75)"/>
<path d="M0 0 C0.66 0 1.32 0 2 0 C2 1.32 2 2.64 2 4 C2.66 4.33 3.32 4.66 4 5 C1.03 5 -1.94 5 -5 5 C-4.34 4.34 -3.68 3.68 -3 3 C-2.01 3 -1.02 3 0 3 C0 2.01 0 1.02 0 0 Z " fill="#C6BFCF" transform="translate(180,60)"/>
<path d="M0 0 C1 4 1 4 0 6 C0.66 6 1.32 6 2 6 C1.34 7.32 0.68 8.64 0 10 C-0.66 10 -1.32 10 -2 10 C-1.34 6.7 -0.68 3.4 0 0 Z " fill="#A493BB" transform="translate(107,195)"/>
<path d="M0 0 C2.64 0.33 5.28 0.66 8 1 C8 1.66 8 2.32 8 3 C7.01 3 6.02 3 5 3 C4.67 3.66 4.34 4.32 4 5 C2.64567325 3.68799596 1.31266518 2.35368596 0 1 C0 0.67 0 0.34 0 0 Z " fill="#CFC8D9" transform="translate(112,30)"/>
<path d="M0 0 C0.33 0 0.66 0 1 0 C1.25 5.625 1.25 5.625 -1 9 C-1.66 9 -2.32 9 -3 9 C-2.30058404 5.85262818 -1.23921302 2.97411124 0 0 Z " fill="#9372BF" transform="translate(33,77)"/>
<path d="M0 0 C0.33 0 0.66 0 1 0 C1 3.96 1 7.92 1 12 C0.01 12.33 -0.98 12.66 -2 13 C-1.34 8.71 -0.68 4.42 0 0 Z " fill="#CDC7D6" transform="translate(121,46)"/>
<path d="M0 0 C0.33 0.66 0.66 1.32 1 2 C0.67 2.99 0.34 3.98 0 5 C0.66 5.33 1.32 5.66 2 6 C0.35 6 -1.3 6 -3 6 C-3 4.68 -3 3.36 -3 2 C-2.01 1.34 -1.02 0.68 0 0 Z " fill="#CFB6F1" transform="translate(135,135)"/>
<path d="M0 0 C0.66 0 1.32 0 2 0 C2 2.64 2 5.28 2 8 C0.4375 6.8125 0.4375 6.8125 -1 5 C-0.6875 2.3125 -0.6875 2.3125 0 0 Z " fill="#DCD8E2" transform="translate(60,122)"/>
<path d="M0 0 C1.65 0 3.3 0 5 0 C4.34 0.66 3.68 1.32 3 2 C2.83318891 5.08347826 2.83318891 5.08347826 3 8 C0.37613513 4.93882432 0 4.26826873 0 0 Z " fill="#DAD1E5" transform="translate(42,94)"/>
<path d="M0 0 C0.66 0 1.32 0 2 0 C2 1.98 2 3.96 2 6 C0.02 4.68 -1.96 3.36 -4 2 C-3.34 1.67 -2.68 1.34 -2 1 C-1.34 1.33 -0.68 1.66 0 2 C0 1.34 0 0.68 0 0 Z " fill="#D1CBD8" transform="translate(180,3)"/>
<path d="M0 0 C2.97 0 5.94 0 9 0 C6.77810176 2.22189824 4.91517292 2.92598892 2 4 C2 3.01 2 2.02 2 1 C1.34 0.67 0.68 0.34 0 0 Z " fill="#DBD7E0" transform="translate(152,1)"/>
</svg>
