<?xml version="1.0" encoding="UTF-8"?>
<svg version="1.1" xmlns="http://www.w3.org/2000/svg" width="287" height="265">
<path d="M0 0 C94.71 0 189.42 0 287 0 C287 87.45 287 174.9 287 265 C192.29 265 97.58 265 0 265 C0 177.55 0 90.1 0 0 Z " fill="#FCFDFE" transform="translate(0,0)"/>
<path d="M0 0 C2.95156784 2.5731617 3.85637189 4.21802472 4.5625 8.0625 C4 11 4 11 2.1875 13.125 C-5.66066263 17.74156625 -14.55180954 19.73100799 -23.27807617 22.06298828 C-29.03073733 23.63647993 -34.37077764 25.62569824 -39.8125 28.08203125 C-42 29 -42 29 -44 29 C-44 32.96 -44 36.92 -44 41 C-41.37308253 40.29824663 -38.7482656 39.59021666 -36.125 38.875 C-34.9177124 38.54592651 -34.9177124 38.54592651 -33.68603516 38.21020508 C-27.08746946 36.37698538 -20.61557636 34.25530871 -14.19189453 31.88037109 C-9.26094645 30.13916221 -5.23478559 29.32507481 0 30 C2.5243356 32.14241904 3.81716375 33.89841923 4.36582947 37.20410728 C4.52255218 40.00964451 4.54023339 42.78850122 4.51757812 45.59838867 C4.5245874 46.66570221 4.53159668 47.73301575 4.53881836 48.83267212 C4.55642314 52.36136906 4.54476191 55.8892636 4.53125 59.41796875 C4.53394518 61.87551527 4.53782781 64.33306076 4.54284668 66.79060364 C4.54874596 71.94457132 4.54016822 77.0982618 4.52148438 82.25219727 C4.49875506 88.84167038 4.51177767 95.43048963 4.53577423 102.01993847 C4.55027156 107.0979143 4.54560706 112.17573681 4.53526306 117.25371742 C4.53260355 119.68207184 4.5358381 122.1104404 4.54518127 124.53877831 C4.55540447 127.94443623 4.53976121 131.3490574 4.51757812 134.75463867 C4.52567505 135.74876266 4.53377197 136.74288666 4.54211426 137.76713562 C4.41375497 148.47000813 0.78207762 156.1054961 -6.55859375 163.796875 C-14.49098945 170.95506888 -22.26449665 172.36775257 -32.70703125 172.28515625 C-37.43918734 171.87537286 -40.93895884 170.3737654 -45 168 C-46.03125 167.443125 -47.0625 166.88625 -48.125 166.3125 C-54.4027432 161.2630109 -59.9579588 154.16393861 -61.33129883 146.0402832 C-62.19215484 135.96205799 -61.15640123 127.35961231 -55 119 C-50.70515432 114.28409101 -46.02241968 110.29425512 -40 108 C-39.01 108 -38.02 108 -37 108 C-37 100.08 -37 92.16 -37 84 C-40.3 85.32 -43.6 86.64 -47 88 C-49.7770363 88.4247232 -52.55455851 88.84690108 -55.3359375 89.2421875 C-61.05738882 90.42551539 -66.50075345 92.39272016 -71.99926758 94.34887695 C-76.90181798 96.06755221 -81.76924935 97.46505787 -86.84008789 98.60961914 C-87.9975502 98.87223038 -89.15501251 99.13484161 -90.34754944 99.40541077 C-91.22285812 99.60162521 -92.09816681 99.79783966 -93 100 C-92.98889694 100.92992767 -92.97779388 101.85985535 -92.96635437 102.81796265 C-92.86465338 111.61499214 -92.78987965 120.41190114 -92.74093914 129.20938683 C-92.71493155 133.73147609 -92.67969702 138.25308783 -92.62280273 142.77490234 C-92.56816493 147.14511379 -92.53851311 151.51486819 -92.52561378 155.88539505 C-92.51643051 157.54627291 -92.49849836 159.20712795 -92.47134972 160.8678093 C-92.3242893 170.2429755 -92.52744982 177.9707135 -98 186 C-98.42468063 186.65978851 -98.84936127 187.31957703 -99.28691101 187.99935913 C-103.49948278 194.18003236 -110.98316899 197.86857163 -118 200 C-126.72828071 201.28408106 -134.43932352 200.65984551 -142 196 C-142.61101562 195.67257813 -143.22203125 195.34515625 -143.8515625 195.0078125 C-150.61192398 190.92777055 -154.41970057 183.71026822 -157.4375 176.625 C-158.87776142 167.34331526 -158.98358024 159.16624052 -154 151 C-153.57589844 150.30132812 -153.15179688 149.60265625 -152.71484375 148.8828125 C-148.21072389 142.23327622 -141.68535192 137.41195067 -134 135 C-131.20182874 134.75839084 -128.54594277 134.62994857 -125.75 134.625 C-125.03714844 134.60050781 -124.32429688 134.57601562 -123.58984375 134.55078125 C-119.29597308 134.52757114 -116.13177297 135.20485925 -112.22363281 137.02880859 C-111.03051483 137.57944473 -111.03051483 137.57944473 -109.81329346 138.14120483 C-109.21490662 138.42460724 -108.61651978 138.70800964 -108 139 C-108.00888245 138.08402542 -108.01776489 137.16805084 -108.0269165 136.22431946 C-108.10710069 127.5875519 -108.16798392 118.95090954 -108.20724869 110.31385517 C-108.2281139 105.87354451 -108.25641177 101.4335417 -108.30175781 96.9934082 C-108.34525406 92.70752631 -108.36914513 88.42194032 -108.37950897 84.13585472 C-108.3868936 82.50157196 -108.40131425 80.86730519 -108.42292023 79.23314857 C-108.45200559 76.94194306 -108.45595403 74.65195645 -108.45410156 72.3605957 C-108.46298401 71.05709671 -108.47186646 69.75359772 -108.48101807 68.41059875 C-107.92088547 64.43904828 -106.81481936 62.80105011 -104 60 C-101.95703125 59.21484375 -101.95703125 59.21484375 -99.8125 58.9375 C-96.53187983 58.40582054 -93.85587649 57.59091018 -90.87109375 56.140625 C-85.79768812 53.81651555 -80.62213069 52.28772847 -75.25 50.8125 C-74.33089844 50.55275391 -73.41179687 50.29300781 -72.46484375 50.02539062 C-68.31103321 48.86220345 -64.23769303 47.84753861 -60 47 C-60 43.04 -60 39.08 -60 35 C-68.13719477 36.44954077 -75.70265026 38.05999132 -83.4140625 41.08203125 C-87.51296393 42.53707934 -91.71717761 43.29393817 -96 44 C-96 44.66 -96 45.32 -96 46 C-102.26721763 46.48209366 -102.26721763 46.48209366 -105.375 44.4375 C-107.47740689 41.28388966 -107.79144109 38.75406042 -108 35 C-106.47606799 31.95213598 -104.14886708 31.76937993 -101 30.625 C-97.09654448 29.17817573 -93.26449775 27.71439912 -89.5 25.9375 C-86.072651 24.37889408 -82.62623126 23.20814678 -79.0234375 22.1171875 C-77.87262695 21.76809326 -76.72181641 21.41899902 -75.53613281 21.05932617 C-70.06972734 19.42174447 -64.59891518 17.79978591 -59.125 16.1875 C-50.32618686 13.5860746 -41.53101491 10.97345823 -32.75 8.3125 C-31.80850098 8.02777832 -30.86700195 7.74305664 -29.89697266 7.44970703 C-25.73556295 6.18101153 -21.59389944 4.88172644 -17.484375 3.453125 C-16.8027832 3.21682373 -16.12119141 2.98052246 -15.41894531 2.73706055 C-13.66056293 2.11894216 -11.90807378 1.48412494 -10.15625 0.84765625 C-6.60449907 -0.10621745 -3.66194713 -0.29524724 0 0 Z " fill="#198DC3" transform="translate(216,31)"/>
<path d="M0 0 C94.71 0 189.42 0 287 0 C287 87.45 287 174.9 287 265 C192.29 265 97.58 265 0 265 C0 177.55 0 90.1 0 0 Z M33 18 C32.10474609 18.75216797 32.10474609 18.75216797 31.19140625 19.51953125 C21.67007725 28.23504622 16.68769543 39.92926896 15.72087479 52.68167305 C15.61185787 56.87148501 15.59371379 61.05170746 15.61181641 65.24243164 C15.60774216 66.84210059 15.60239553 68.44176672 15.59588623 70.04142761 C15.58230922 74.35130684 15.58747086 78.66096857 15.59702349 82.97085118 C15.60466899 87.50070952 15.59756111 92.0305504 15.59286499 96.56040955 C15.58742215 104.16343497 15.59456086 111.76637269 15.60888672 119.36938477 C15.62521627 128.13657437 15.61991657 136.90355468 15.6034075 145.67073923 C15.58975758 153.22439958 15.58788989 160.77799723 15.59572351 168.33166593 C15.60038005 172.83168587 15.60108073 177.33160769 15.59111404 181.83162117 C15.58239519 186.06301272 15.58855527 190.29413647 15.60579681 194.52549934 C15.6097353 196.07055214 15.60867333 197.61562779 15.60200882 199.16067123 C15.53532928 216.2008303 19.12930499 230.3546741 31 243 C33.86967192 245.54434532 36.87104656 247.78784766 40 250 C41.3303125 251.11375 41.3303125 251.11375 42.6875 252.25 C52.94037216 257.66661171 65.03775772 257.43769885 76.34594727 257.38818359 C77.93281411 257.39226023 79.51967812 257.39760817 81.10653687 257.40411377 C85.37304585 257.41766247 89.63933454 257.41254113 93.90584683 257.40297651 C98.39605325 257.39531605 102.88624233 257.40244296 107.37644958 257.40713501 C114.91205184 257.41257357 122.44756553 257.40545051 129.9831543 257.39111328 C138.66514097 257.37478451 147.34691625 257.38008461 156.02889782 257.3965925 C163.51723766 257.41025468 171.00551428 257.41210417 178.49386257 257.40427649 C182.95143941 257.39962664 187.40891723 257.39890049 191.8664875 257.40888596 C196.05851523 257.41762287 200.25027325 257.41141253 204.44227219 257.39420319 C205.97036099 257.39027419 207.49847295 257.39130992 209.0265522 257.39799118 C226.42069061 257.46696798 240.46598739 254.45974517 253.375 242.1875 C260.45370105 234.67703228 264.56376538 226.99031464 267 217 C267.17316333 216.43138968 267.34632666 215.86277937 267.52473736 215.27693844 C268.15281975 212.26785502 268.13618606 209.41723547 268.14717102 206.34242249 C268.15084771 205.674391 268.1545244 205.00635952 268.1583125 204.31808466 C268.16932114 202.08061957 268.17318845 199.84320097 268.17700195 197.60571289 C268.183269 196.00061903 268.18991602 194.39552662 268.19691467 192.79043579 C268.21793822 187.51785285 268.22831917 182.24526969 268.23828125 176.97265625 C268.2423302 175.15399091 268.24644716 173.33532572 268.25063133 171.51666069 C268.26968351 162.96673362 268.28391145 154.41681515 268.2922433 145.86687094 C268.30199989 136.01878109 268.32827795 126.17091695 268.36874419 116.32290655 C268.39898891 108.69890474 268.41372029 101.07496729 268.41702431 93.45090669 C268.41936633 88.90368818 268.42821478 84.35671076 268.45348549 79.80955696 C268.47691627 75.52407629 268.48093978 71.23899285 268.47072411 66.95346451 C268.47023217 65.38988988 268.47645031 63.82629469 268.49028015 62.26278114 C268.62182215 46.49502457 265.36441249 33.07304653 254.41796875 21.19921875 C249.54290776 16.48779617 245.39831097 13.02028293 238.6796875 11.59765625 C238.12539062 11.40042969 237.57109375 11.20320312 237 11 C236.67 10.01 236.34 9.02 236 8 C226.99434016 5.90665472 218.17056528 5.71460979 208.97875977 5.74121094 C207.39071493 5.73849543 205.80267135 5.73493137 204.21463013 5.73059082 C199.93152269 5.72153039 195.64851239 5.72498489 191.36540341 5.73134899 C186.8640374 5.73644293 182.36267923 5.73170808 177.86131287 5.72857666 C170.30360433 5.72494648 162.74593499 5.72971077 155.18823242 5.73925781 C146.47622266 5.75013658 137.76430657 5.74661714 129.05229908 5.735605 C121.54621127 5.72650032 114.0401515 5.72526247 106.53405994 5.73048234 C102.06251711 5.73358511 97.59101816 5.73405838 93.11947823 5.72740936 C88.91277479 5.7215902 84.70619093 5.72571554 80.49950027 5.73719788 C78.96454122 5.73982037 77.42957193 5.73912115 75.89461708 5.73467255 C59.48340097 5.69153068 45.82981314 7.11968619 33 18 Z " fill="#1288C0" transform="translate(0,0)"/>
<path d="M0 0 C9.24 0 18.48 0 28 0 C28 0.66 28 1.32 28 2 C78.16 2 128.32 2 180 2 C180 1.34 180 0.68 180 0 C189.24 0 198.48 0 208 0 C208.33 1.98 208.66 3.96 209 6 C209.33 4.02 209.66 2.04 210 0 C219.24 0 228.48 0 238 0 C238 8.91 238 17.82 238 27 C236.02 27 234.04 27 232 27 C231.67 27.66 231.34 28.32 231 29 C230.50693359 28.1646875 230.50693359 28.1646875 230.00390625 27.3125 C224.64240568 18.7108514 218.35925017 12.35916586 208.75 8.7890625 C207 8 207 8 206 6 C197.34930421 3.21972666 187.95757927 3.71522617 178.97875977 3.74121094 C177.39071493 3.73849543 175.80267135 3.73493137 174.21463013 3.73059082 C169.93152269 3.72153039 165.64851239 3.72498489 161.36540341 3.73134899 C156.8640374 3.73644293 152.36267923 3.73170808 147.86131287 3.72857666 C140.30360433 3.72494648 132.74593499 3.72971077 125.18823242 3.73925781 C116.47622266 3.75013658 107.76430657 3.74661714 99.05229908 3.735605 C91.54621127 3.72650032 84.0401515 3.72526247 76.53405994 3.73048234 C72.06251711 3.73358511 67.59101816 3.73405838 63.11947823 3.72740936 C58.91277479 3.7215902 54.70619093 3.72571554 50.49950027 3.73719788 C48.96454122 3.73982037 47.42957193 3.73912115 45.89461708 3.73467255 C30.40758118 3.69396017 17.15627106 4.76065715 4.7265625 14.6328125 C3.21001607 15.83369768 1.60954711 16.92696859 0 18 C0 12.06 0 6.12 0 0 Z " fill="#148AC2" transform="translate(30,3)"/>
<path d="M0 0 C0 3.96 0 7.92 0 12 C-2.413125 12.556875 -2.413125 12.556875 -4.875 13.125 C-10.16334703 14.44244786 -15.28655141 16.05024402 -20.4375 17.8125 C-27.94821199 20.38005969 -35.51733436 22.60967998 -43.16162109 24.74267578 C-49.77896086 26.60666357 -56.28120493 28.72277215 -62.78466797 30.94775391 C-68.78568619 32.9808187 -74.82324387 34.57459474 -81 36 C-81 32.37 -81 28.74 -81 25 C-66.73490743 19.67720427 -52.32513114 14.79488674 -37.61694336 10.84838867 C-29.94884591 8.76796335 -22.45842399 6.20145127 -14.93701172 3.65039062 C-4.06531532 0 -4.06531532 0 0 0 Z " fill="#EFF7FB" transform="translate(205,79)"/>
<path d="M0 0 C3.375 0.25 3.375 0.25 5.875 1.1875 C7.6448019 3.62097761 7.63225293 4.48724234 7.5 7.4375 C6.41694372 13.91480746 3.1363852 17.98585724 -1.859375 22.08203125 C-7.29059281 25.77491342 -11.74346015 26.90797013 -18.27734375 26.8515625 C-20.625 26.25 -20.625 26.25 -22.40625 24.37890625 C-24.17572395 21.28799823 -24.22656214 19.79253262 -23.625 16.25 C-20.44498142 9.76183022 -15.94067141 4.78270956 -9.625 1.25 C-6.32851219 0.30814634 -3.42009225 0.23586843 0 0 Z " fill="#F8FBFD" transform="translate(87.625,172.75)"/>
<path d="M0 0 C1.29550781 -0.03867188 1.29550781 -0.03867188 2.6171875 -0.078125 C5.65280939 0.31905917 6.97636674 1.08665007 9.125 3.25 C9.7349518 7.90088251 9.65937013 10.18125974 7.5625 14.375 C2.56859449 20.26524753 -2.96656132 25.45036168 -10.953125 26.53125 C-14.01762457 26.66744998 -16.52466336 26.39013466 -19.375 25.25 C-21.27992031 22.71010626 -21.55591385 20.57826826 -21.3828125 17.43359375 C-19.66663384 10.05402549 -12.90818363 5.17700466 -6.875 1.25 C-4.43545342 0.03022671 -2.72194151 0.04846187 0 0 Z " fill="#F8FBFD" transform="translate(181.875,144.75)"/>
<path d="M0 0 C5.61 0 11.22 0 17 0 C17 8.91 17 17.82 17 27 C11.39 27 5.78 27 0 27 C0 18.09 0 9.18 0 0 Z " fill="#128AC2" transform="translate(270,3)"/>
<path d="M0 0 C0 3.96 0 7.92 0 12 C-9.9 12 -19.8 12 -30 12 C-30 9.69 -30 7.38 -30 5 C-79.5 5 -129 5 -180 5 C-180 4.67 -180 4.34 -180 4 C-179.17192494 3.99761165 -178.34384989 3.99522329 -177.49068165 3.99276257 C-157.29899716 3.93350812 -137.10743099 3.85789152 -116.91587543 3.76428509 C-107.15120336 3.71940735 -97.3865671 3.67997434 -87.62182617 3.65356445 C-79.10632324 3.63051923 -70.59093443 3.59704883 -62.07552212 3.55129844 C-57.57080652 3.52745388 -53.06620333 3.50866786 -48.56142616 3.50238609 C-44.3120978 3.49629531 -40.06305671 3.47615315 -35.81383514 3.44572449 C-34.26319824 3.43700776 -32.7125237 3.4332083 -31.16186333 3.43499184 C-22.7020127 3.44164359 -14.86537507 2.86836221 -6.65645123 0.64104939 C-4 0 -4 0 0 0 Z " fill="#2492C5" transform="translate(240,253)"/>
<path d="M0 0 C9.24 0 18.48 0 28 0 C28 0.66 28 1.32 28 2 C82.45 2 136.9 2 193 2 C193 2.33 193 2.66 193 3 C192.18131062 3.00331015 191.36262123 3.00662029 190.51912308 3.01003075 C170.56147762 3.09139386 150.60390695 3.18352955 130.64636612 3.28752708 C120.99489157 3.33756291 111.34342513 3.38400659 101.69189453 3.421875 C93.27567353 3.45490584 84.85951718 3.49479765 76.44336772 3.54279006 C71.990683 3.56794519 67.53804056 3.58975838 63.08530426 3.60334396 C58.88610211 3.6162647 54.68704578 3.63842479 50.48792458 3.66738319 C48.95460153 3.67638134 47.42125506 3.68213082 45.88790703 3.68421364 C30.41164541 3.70897973 17.14964034 4.76592352 4.7265625 14.6328125 C3.21001607 15.83369768 1.60954711 16.92696859 0 18 C0 12.06 0 6.12 0 0 Z " fill="#339ACA" transform="translate(30,3)"/>
<path d="M0 0 C0 11.88 0 23.76 0 36 C-5.445 34.515 -5.445 34.515 -11 33 C-11 23.1 -11 13.2 -11 3 C-3 0 -3 0 0 0 Z " fill="#E6F2F8" transform="translate(205,106)"/>
<path d="M0 0 C2.13604308 3.20406462 2.24208908 3.99600747 2.1953125 7.66796875 C2.18564453 9.00698242 2.18564453 9.00698242 2.17578125 10.37304688 C2.15902344 11.30181641 2.14226562 12.23058594 2.125 13.1875 C2.11597656 14.12787109 2.10695313 15.06824219 2.09765625 16.03710938 C2.07409207 18.35818157 2.03822121 20.67912289 2 23 C-2.29 23 -6.58 23 -11 23 C-10.52949219 22.20335937 -10.05898437 21.40671875 -9.57421875 20.5859375 C-8.95160156 19.52632812 -8.32898438 18.46671875 -7.6875 17.375 C-7.07261719 16.33085937 -6.45773437 15.28671875 -5.82421875 14.2109375 C-1.97907262 7.4495168 -1.97907262 7.4495168 0 0 Z " fill="#1D8FC4" transform="translate(266,217)"/>
<path d="M0 0 C9.24 0 18.48 0 28 0 C28.33 1.98 28.66 3.96 29 6 C31.44309577 7.91744593 31.44309577 7.91744593 34 9 C32 10 32 10 29.4375 9.1875 C27 8 27 8 26 6 C17.56663353 3.22865787 8.8185032 2.41855416 0 2 C0 1.34 0 0.68 0 0 Z " fill="#2291C5" transform="translate(210,3)"/>
<path d="M0 0 C4.1117256 -0.02465746 8.22342278 -0.04283959 12.33520508 -0.05493164 C13.73495228 -0.0599708 15.1346942 -0.06680216 16.53442383 -0.07543945 C18.54245777 -0.0875232 20.55052957 -0.09269807 22.55859375 -0.09765625 C24.37315063 -0.10551147 24.37315063 -0.10551147 26.22436523 -0.11352539 C29 0 29 0 30 1 C30.08726223 2.78071246 30.10699041 4.5648314 30.09765625 6.34765625 C30.09443359 7.42724609 30.09121094 8.50683594 30.08789062 9.61914062 C30.07951172 10.75544922 30.07113281 11.89175781 30.0625 13.0625 C30.05798828 14.20267578 30.05347656 15.34285156 30.04882812 16.51757812 C30.03699747 19.34510351 30.0205141 22.1725264 30 25 C29.34 25 28.68 25 28 25 C28 17.41 28 9.82 28 2 C18.76 2 9.52 2 0 2 C0 1.34 0 0.68 0 0 Z " fill="#1180B4" transform="translate(0,240)"/>
<path d="M0 0 C7.26 0 14.52 0 22 0 C22 0.99 22 1.98 22 3 C14.74 3 7.48 3 0 3 C0 2.01 0 1.02 0 0 Z " fill="#1183B8" transform="translate(0,30)"/>
<path d="M0 0 C1.65 0 3.3 0 5 0 C5 4.95 5 9.9 5 15 C3.31626595 11.6325319 2.31781585 8.84984234 1.375 5.25 C1.11460937 4.26515625 0.85421875 3.2803125 0.5859375 2.265625 C0.39257812 1.51796875 0.19921875 0.7703125 0 0 Z " fill="#168AC1" transform="translate(263,33)"/>
<path d="M0 0 C0.66 0.33 1.32 0.66 2 1 C0.89718873 2.27200971 -0.20730769 3.54255853 -1.3125 4.8125 C-1.92738281 5.52019531 -2.54226562 6.22789063 -3.17578125 6.95703125 C-6.44911047 10.6228796 -6.44911047 10.6228796 -8 12 C-8.66 12 -9.32 12 -10 12 C-8.52278578 8.54798361 -6.56205999 6.35038064 -3.875 3.75 C-3.15054688 3.04359375 -2.42609375 2.3371875 -1.6796875 1.609375 C-1.12539063 1.07828125 -0.57109375 0.5471875 0 0 Z " fill="#D0E7F2" transform="translate(36,15)"/>
<path d="M0 0 C0.66 0 1.32 0 2 0 C0.34908222 4.29238623 -2.73754566 6.8793915 -6 10 C-6.66 9.67 -7.32 9.34 -8 9 C-6.71520959 7.49410612 -5.42195918 5.99542625 -4.125 4.5 C-3.04605469 3.24703125 -3.04605469 3.24703125 -1.9453125 1.96875 C-1.30335938 1.3190625 -0.66140625 0.669375 0 0 Z " fill="#379CCB" transform="translate(167,144)"/>
<path d="M0 0 C0.66 0.33 1.32 0.66 2 1 C0.87895467 2.31587941 -0.24696965 3.62760353 -1.375 4.9375 C-2.00148437 5.66839844 -2.62796875 6.39929688 -3.2734375 7.15234375 C-5 9 -5 9 -7 10 C-5.6062718 5.56541027 -3.39417765 3.12621626 0 0 Z " fill="#D4EAF4" transform="translate(170,149)"/>
<path d="M0 0 C-1.49097658 3.7952131 -3.75700849 5.61042731 -7 8 C-4.18918919 0 -4.18918919 0 0 0 Z " fill="#C4E1EF" transform="translate(73,179)"/>
</svg>
